<svg width="14" height="21" viewBox="0 0 14 21" fill="none" xmlns="http://www.w3.org/2000/svg">
<path d="M6.68806 6.5988C6.31945 6.64164 6.03833 6.94101 6.01218 7.31856C6.00091 7.48118 6.00443 7.49219 6.37319 8.44108C7.21206 10.5998 7.41531 11.1194 7.44946 11.1925C7.5323 11.3696 7.64873 11.5362 7.79425 11.6857C7.90587 11.8004 7.97951 11.8621 8.104 11.9453C8.3229 12.0915 8.43148 12.1319 9.28316 12.3841C10.1127 12.6297 10.566 12.793 10.9565 12.9868C11.4625 13.238 11.8155 13.5236 12.0388 13.8625C12.199 14.1057 12.3409 14.5418 12.4026 14.9808C12.4268 15.1524 12.4269 15.5317 12.4029 15.6869C12.3508 16.0236 12.2468 16.3058 12.0877 16.5419C12.003 16.6674 12.0325 16.6464 12.1555 16.4933C12.5038 16.0603 12.8586 15.3203 13.0396 14.6492C13.2587 13.8369 13.2885 12.9647 13.1254 12.1392C12.8077 10.5317 11.7928 9.14429 10.3636 8.36372C10.2738 8.31463 9.9317 8.13531 9.46796 7.89424C9.39681 7.85723 9.32572 7.82013 9.25469 7.78292C9.20782 7.75827 9.11185 7.70815 9.04147 7.67161C8.97108 7.63503 8.76851 7.5295 8.59131 7.43705L8.15061 7.2073C8.00682 7.13236 7.86309 7.05731 7.71942 6.98214C7.25986 6.74159 7.06535 6.64433 7.0099 6.62748C6.95176 6.60976 6.80402 6.58707 6.76697 6.59012C6.75911 6.59074 6.72366 6.59467 6.68806 6.5988Z" fill="#0033FF"/>
<path d="M7.68922 14.6568C7.66375 14.6719 7.62804 14.6937 7.6098 14.7053C7.5915 14.7169 7.55104 14.7421 7.51972 14.7613C7.29215 14.9012 7.0647 15.0414 6.83739 15.1818C6.69823 15.2676 6.55922 15.3537 6.42035 15.44C6.35896 15.4782 6.29736 15.5161 6.23556 15.5536C6.2121 15.5676 6.1119 15.6293 6.01283 15.6907C5.88503 15.7699 5.75709 15.8489 5.62903 15.9277C5.48043 16.0191 5.33194 16.1107 5.18358 16.2024C5.05419 16.2825 4.92469 16.3624 4.79507 16.4421C4.71425 16.4916 4.63963 16.5395 4.62919 16.5484C4.61369 16.5617 3.89512 17.0068 3.53457 17.2265C3.26069 17.3933 2.94391 17.5048 2.61964 17.5487C2.46869 17.5691 2.18297 17.5691 2.03243 17.5488C1.62419 17.4937 1.24819 17.3414 0.926087 17.101C0.799789 17.0066 0.561921 16.769 0.471021 16.6462C0.256718 16.357 0.118121 16.0467 0.0463422 15.6956C0.0298057 15.6148 0.0141993 15.5466 0.0116155 15.5439C0.0048975 15.5372 0.0170415 15.6592 0.0389008 15.8188C0.0616385 15.9847 0.11006 16.2248 0.162253 16.4301C0.566055 18.0188 1.71514 19.311 3.27061 19.9258C3.71854 20.1027 4.17056 20.2143 4.66236 20.2689C4.84716 20.2896 5.37028 20.2979 5.56309 20.2832C6.44764 20.2162 7.21778 19.9559 8.00781 19.4566C8.07819 19.4121 8.21038 19.3287 8.30159 19.2713C8.38707 19.2175 8.47238 19.1634 8.5575 19.109C8.607 19.0773 8.66674 19.0397 8.69015 19.0256C8.72519 19.0043 8.75996 18.9824 8.79443 18.9601C8.82833 18.9382 8.97329 18.8464 9.11664 18.7563L9.68984 18.3943L9.88667 18.2699L9.89375 18.2655L9.91546 18.2518L9.92574 18.2453L10.0706 18.1537L10.5714 17.8374C11.2095 17.4365 11.3998 17.2957 11.6962 17.0053C11.8198 16.8843 12.0061 16.6777 12.0153 16.6515C12.0173 16.6461 12.0504 16.595 12.0889 16.5379C12.2458 16.3058 12.3504 16.0214 12.4023 15.6861C12.4263 15.531 12.4262 15.1516 12.402 14.98C12.3554 14.6483 12.2493 14.2719 12.135 14.0323C11.9476 13.6394 11.5483 13.2824 10.9747 12.9949C10.8163 12.9154 10.6528 12.8428 10.6345 12.8438C10.6259 12.8442 10.0921 13.1705 9.44835 13.5688C8.80461 13.9672 8.24594 14.3129 8.20682 14.3372C8.15725 14.3679 8.1075 14.3983 8.05758 14.4284L7.68922 14.6568Z" fill="#0033FF"/>
<path d="M0.00273887 12.7458L0.00552941 15.5203L0.0414447 15.6814C0.153687 16.1851 0.348249 16.5483 0.686473 16.8856C0.845534 17.0442 0.967181 17.1399 1.13957 17.2419C1.50441 17.4578 1.897 17.5643 2.327 17.5641C2.77742 17.5639 3.16706 17.4515 3.56854 17.2061C3.63628 17.1647 3.9018 17.0013 4.15848 16.8429L4.62522 16.5549V9.97131L4.62512 6.95996C4.62501 5.03877 4.6215 3.8978 4.6154 3.8083C4.57716 3.2458 4.34188 2.72867 3.94629 2.33753C3.8249 2.21748 3.72119 2.13728 3.41216 1.92463C3.20362 1.7811 2.99512 1.63751 2.78667 1.49385C2.35075 1.19338 1.9148 0.892954 1.47883 0.592558C1.18019 0.386627 1.15683 0.372364 1.06656 0.340066C0.949146 0.298053 0.824709 0.282601 0.706421 0.295366C0.361634 0.332573 0.0856283 0.581551 0.013901 0.919982C0.00273887 0.972692 0.000671797 1.67343 0.000516767 5.47678L0.000361737 9.97136H0L0.00273887 12.7458Z" fill="#0033FF"/>
</svg>
