<svg xmlns="http://www.w3.org/2000/svg" enable-background="new 0 0 32 32" viewBox="0 0 32 32" id="customer-support"><path d="M28.009,13.892h-1.302v-0.859c0-5.904-4.803-10.707-10.708-10.707S5.292,7.129,5.292,13.033v0.859H3.991
		C2.891,13.892,2,14.783,2,15.883v4.4c0,1.099,0.891,1.99,1.991,1.99h2.37c0.404,0,0.731-0.327,0.731-0.731c0-2.836,0-5.673,0-8.509
		c0-4.912,3.996-8.907,8.908-8.907s8.908,3.996,8.908,8.907c0,2.191,0,4.382,0,6.574c0,0.897,0,1.794,0,2.691
		c0,1.905-1.55,3.456-3.456,3.456h-3.061c-0.339-0.72-1.066-1.221-1.914-1.221h-0.955c-1.171,0-2.121,0.95-2.121,2.121
		s0.95,2.121,2.121,2.121h0.955c0.848,0,1.575-0.502,1.914-1.221h3.06c2.898,0,5.255-2.357,5.255-5.255v-0.025h1.302
		c1.099,0,1.991-0.891,1.991-1.99v-4.4C30,14.783,29.109,13.892,28.009,13.892z"></path></svg>