<svg width="25" height="25" viewBox="0 0 25 25" fill="none" xmlns="http://www.w3.org/2000/svg">
<g clip-path="url(#clip0_411_198470)">
<path d="M24.5 12.8008C24.5 6.17341 19.1274 0.800781 12.5 0.800781C5.87262 0.800781 0.5 6.17341 0.5 12.8008C0.5 18.7903 4.88825 23.7548 10.625 24.655V16.2695H7.57812V12.8008H10.625V10.157C10.625 7.14953 12.4166 5.48828 15.1576 5.48828C16.4705 5.48828 17.8438 5.72266 17.8438 5.72266V8.67578H16.3306C14.8399 8.67578 14.375 9.60081 14.375 10.5498V12.8008H17.7031L17.1711 16.2695H14.375V24.655C20.1117 23.7548 24.5 18.7904 24.5 12.8008Z" fill="#0033FF"/>
<path d="M17.1711 16.2695L17.7031 12.8008H14.375V10.5498C14.375 9.60072 14.8399 8.67578 16.3306 8.67578H17.8438V5.72266C17.8438 5.72266 16.4705 5.48828 15.1575 5.48828C12.4166 5.48828 10.625 7.14953 10.625 10.157V12.8008H7.57812V16.2695H10.625V24.655C11.2453 24.7522 11.8722 24.8009 12.5 24.8008C13.1278 24.801 13.7547 24.7522 14.375 24.655V16.2695H17.1711Z" fill="white"/>
</g>
<defs>
<clipPath id="clip0_411_198470">
<rect width="24" height="24" fill="white" transform="translate(0.5 0.800781)"/>
</clipPath>
</defs>
</svg>
