<svg width="11" height="11" viewBox="0 0 11 11" fill="none" xmlns="http://www.w3.org/2000/svg">
<path fill-rule="evenodd" clip-rule="evenodd" d="M8.48583 2.17722L8.58011 2.45983C8.5875 2.482 8.59455 2.50395 8.60129 2.52567C8.70465 2.85921 8.73239 3.1438 8.70783 3.37896C8.68511 3.59654 8.61127 3.81954 8.45932 3.9715C8.26406 4.16676 8.19526 4.16676 8 3.9715C7.82138 3.79288 7.65307 3.62882 7.70653 3.31682C7.70875 3.30733 7.71131 3.29354 7.71324 3.27508C7.72111 3.19979 7.71756 3.05407 7.64754 2.82633C7.60326 2.69317 7.54978 2.53226 7.53155 2.47717L7.52612 2.46072L7.52396 2.45407L7.52257 2.44969L7.52074 2.44369L7.51866 2.4365C7.5177 2.43304 7.51505 2.423 7.51344 2.4164C7.50967 2.39919 7.503 2.2451 7.53669 2.11251C7.95358 1.80294 8.43826 2.06031 8.45398 2.09149C8.45805 2.10056 8.46371 2.11406 8.46545 2.11843L8.46868 2.12689C8.47052 2.13185 8.4721 2.13641 8.4721 2.13641C8.47415 2.1423 8.4794 2.15797 8.48583 2.17722Z" fill="#65676B"/>
<path fill-rule="evenodd" clip-rule="evenodd" d="M8.08449 4.52287C7.82699 4.67546 7.54107 4.87927 7.31802 5.07754C6.9227 5.42894 6.38426 5.48161 6.01708 5.48161C5.81993 5.48161 5.6362 5.46573 5.49389 5.45128C5.45043 5.44686 5.42019 5.44361 5.39293 5.44067C5.36651 5.43783 5.34288 5.43528 5.3127 5.43227C5.2886 5.42987 5.26997 5.42821 5.25542 5.42716C5.24284 5.42626 5.23695 5.4261 5.23587 5.42607C5.10799 5.42607 4.99759 5.38709 4.93259 5.36072C4.85868 5.33073 4.78635 5.29271 4.72214 5.25601C4.59766 5.18488 4.46069 5.09356 4.34184 5.01432L4.33348 5.00875C4.27537 4.97001 4.22125 4.93399 4.17097 4.90133C4.14956 4.96672 4.12426 5.03968 4.09581 5.10795C4.04761 5.22362 3.96551 5.39088 3.81802 5.52199C3.71742 5.6114 3.55797 5.75411 3.42389 5.91913C3.2736 6.10411 3.23583 6.2206 3.23583 6.25939V6.31933L2.72167 8.43312C2.6564 8.70144 2.38598 8.86605 2.11766 8.80078C1.84934 8.73551 1.68473 8.46509 1.75 8.19677L2.23813 6.19003C2.26289 5.81394 2.48311 5.49121 2.64778 5.28854C2.83231 5.06142 3.03986 4.87574 3.1433 4.78378C3.14693 4.77781 3.15745 4.76002 3.17273 4.72333C3.19623 4.66695 3.21562 4.60608 3.24167 4.52428C3.24737 4.50641 3.25338 4.48754 3.25982 4.4675C3.28871 4.37762 3.33506 4.23405 3.40716 4.11228C3.47757 3.99336 3.65587 3.75939 3.98583 3.75939C4.11371 3.75939 4.22408 3.79836 4.28908 3.82473C4.36299 3.85473 4.43531 3.89274 4.49953 3.92944C4.62401 4.00057 4.76097 4.09188 4.87982 4.17112L4.88818 4.1767C5.01743 4.26286 5.12694 4.33558 5.21828 4.38777C5.25229 4.40721 5.27727 4.41998 5.29434 4.42787C5.36486 4.4317 5.45058 4.44095 5.52542 4.44903C5.5501 4.45169 5.57359 4.45423 5.59496 4.4564C5.72609 4.46972 5.87049 4.48161 6.01708 4.48161C6.33741 4.48161 6.54897 4.42318 6.65365 4.33013C6.9306 4.08396 7.38724 3.7862 7.69225 3.60546C7.84501 3.51493 7.88013 3.49151 8.01913 3.43186C8.13795 3.38087 8.31318 3.31495 8.48583 3.31495C8.71899 3.31495 8.98536 3.40647 9.1889 3.49693C9.40497 3.59296 9.64185 3.7291 9.81802 3.88569C10.0244 4.06915 10.043 4.38518 9.85954 4.59157C9.67608 4.79797 9.36004 4.81656 9.15365 4.6331C9.07981 4.56746 8.9417 4.48138 8.78276 4.41074C8.70666 4.37692 8.63545 4.35099 8.57632 4.33427C8.54144 4.3244 8.51712 4.31956 8.50252 4.31719C8.48875 4.32143 8.46002 4.33084 8.41348 4.35082C8.32592 4.38839 8.21297 4.44673 8.08449 4.52287Z" fill="#65676B"/>
<path fill-rule="evenodd" clip-rule="evenodd" d="M7.49402 5.97642C7.70965 5.88873 7.98457 5.80078 8.25011 5.80078C8.4878 5.80078 8.68801 5.89813 8.833 5.99681C8.98124 6.09771 9.11038 6.22613 9.2167 6.34976C9.42912 6.59675 9.60057 6.88367 9.69732 7.07717C9.82082 7.32416 9.72071 7.6245 9.47372 7.74799C9.22673 7.87149 8.92639 7.77138 8.8029 7.52439C8.73298 7.38456 8.60444 7.17148 8.45852 7.0018C8.38567 6.9171 8.32106 6.85802 8.27034 6.8235C8.2524 6.81129 8.23999 6.80469 8.2328 6.80131C8.15987 6.80556 8.03597 6.83555 7.87074 6.90275C7.70255 6.97115 7.53338 7.06063 7.40234 7.13857C7.26699 7.21907 7.12867 7.27749 6.99903 7.32271C6.89786 7.358 6.80344 7.40268 6.73793 7.4479C6.72843 7.45446 6.72042 7.46043 6.71374 7.46572L6.71399 7.46716C6.71752 7.48758 6.72113 7.50518 6.72609 7.52942C6.72856 7.54146 6.73136 7.55514 6.73465 7.57163C6.74313 7.61404 6.75404 7.67146 6.76061 7.73392C6.77121 7.8346 6.78996 7.94347 6.81827 8.04529C6.82734 8.04757 6.8389 8.05008 6.85338 8.05257C6.91376 8.06295 6.99069 8.06767 7.09933 8.07067C7.11868 8.0712 7.13957 8.07169 7.16159 8.07219C7.24953 8.07422 7.35565 8.07667 7.45514 8.08459C7.72107 8.10577 7.99984 8.19967 8.27747 8.38476C8.50723 8.53793 8.56932 8.84837 8.41614 9.07813C8.26297 9.3079 7.95253 9.36998 7.72277 9.21681C7.57542 9.11857 7.45848 9.08802 7.37574 9.08143C7.3071 9.07597 7.23851 9.07435 7.15501 9.07237C7.12886 9.07176 7.10125 9.0711 7.07172 9.07029C6.95989 9.0672 6.8207 9.06162 6.68395 9.03812C6.54723 9.01461 6.37868 8.96795 6.22332 8.85993C6.05689 8.74421 5.93472 8.5782 5.87137 8.37003C5.81494 8.18457 5.78287 7.99791 5.7661 7.83855C5.7628 7.8072 5.75947 7.79216 5.75382 7.76659C5.74832 7.74176 5.74064 7.707 5.72864 7.63774C5.71165 7.53955 5.68995 7.37653 5.73665 7.19632C5.81 6.91327 6.01792 6.72982 6.1698 6.62496C6.3334 6.51202 6.51717 6.4317 6.66968 6.3785C6.7565 6.34822 6.82947 6.31578 6.89115 6.2791C7.05254 6.18311 7.26743 6.06857 7.49402 5.97642Z" fill="#65676B"/>
<path d="M10.5 5.80078C10.5 8.56221 8.26142 10.8008 5.5 10.8008C2.73858 10.8008 0.5 8.56221 0.5 5.80078C0.5 3.03936 2.73858 0.800781 5.5 0.800781C8.26142 0.800781 10.5 3.03936 10.5 5.80078ZM1.49653 5.80078C1.49653 8.01184 3.28894 9.80426 5.5 9.80426C7.71106 9.80426 9.50347 8.01184 9.50347 5.80078C9.50347 3.58972 7.71106 1.79731 5.5 1.79731C3.28894 1.79731 1.49653 3.58972 1.49653 5.80078Z" fill="#65676B"/>
</svg>
