<svg width="24" height="22" viewBox="0 0 24 22" fill="none" xmlns="http://www.w3.org/2000/svg">
<path d="M0.552213 15.8188L8.52021 2.17773C9.53234 2.77361 14.6361 5.59811 15.4603 6.1353L7.49234 19.7771C6.62093 20.9284 -0.551787 17.5659 0.552213 15.8181V15.8188Z" fill="#FBBC04"/>
<path d="M23.4454 15.8189L15.4774 2.17868C14.3635 0.324869 11.9644 -0.348818 9.99391 0.746088C8.02338 1.84099 7.42338 4.19956 8.53732 6.13615L16.5053 19.7781C17.6193 21.6311 20.0184 22.3046 21.9889 21.2098C23.8733 20.1148 24.5594 17.6726 23.4454 15.8205V15.8189Z" fill="#4285F4"/>
<path d="M3.99975 21.7363C6.20875 21.7363 7.9995 19.99 7.9995 17.8359C7.9995 15.6818 6.20875 13.9355 3.99975 13.9355C1.79075 13.9355 0 15.6818 0 17.8359C0 19.99 1.79075 21.7363 3.99975 21.7363Z" fill="#34A853"/>
</svg>
