<svg width="14" height="14" viewBox="0 0 14 14" fill="none" xmlns="http://www.w3.org/2000/svg">
<path d="M5.43759 3.62131C5.51729 3.3253 5.93726 3.3253 6.01696 3.62131L6.89731 6.89096C6.9251 6.99421 7.00575 7.07485 7.10899 7.10265L10.3786 7.983C10.6747 8.0627 10.6747 8.48267 10.3786 8.56237L7.10899 9.44272C7.00575 9.47051 6.9251 9.55116 6.89731 9.6544L6.01696 12.9241C5.93726 13.2201 5.51729 13.2201 5.43759 12.9241L4.55724 9.6544C4.52944 9.55116 4.4488 9.47051 4.34555 9.44272L1.0759 8.56237C0.779893 8.48267 0.779893 8.0627 1.0759 7.983L4.34555 7.10265C4.4488 7.07485 4.52944 6.99421 4.55724 6.89096L5.43759 3.62131Z" fill="white"/>
<path d="M10.8469 1.0759C10.9266 0.779893 11.3466 0.779893 11.4263 1.0759L11.6991 2.08939C11.7269 2.19263 11.8076 2.27327 11.9108 2.30107L12.9243 2.57395C13.2203 2.65365 13.2203 3.07362 12.9243 3.15332L11.9108 3.4262C11.8076 3.454 11.7269 3.53464 11.6991 3.63789L11.4263 4.65138C11.3466 4.94738 10.9266 4.94738 10.8469 4.65138L10.574 3.63789C10.5462 3.53464 10.4656 3.454 10.3623 3.4262L9.34885 3.15332C9.05284 3.07362 9.05284 2.65365 9.34885 2.57395L10.3623 2.30107C10.4656 2.27327 10.5462 2.19263 10.574 2.08939L10.8469 1.0759Z" fill="white"/>
</svg>
