<svg width="24" height="25" viewBox="0 0 24 25" fill="none" xmlns="http://www.w3.org/2000/svg">
<path fill-rule="evenodd" clip-rule="evenodd" d="M16.0229 5.1029C17.8529 4.9769 19.2669 6.0449 20.2079 7.2769C21.1559 8.5199 21.8089 10.1429 22.1679 11.7389C22.5249 13.3349 22.6209 15.0499 22.3239 16.5119C22.0389 17.9159 21.2779 19.5219 19.5569 20.0369C17.9369 20.5209 16.5169 19.8169 15.5049 18.9649C14.4889 18.1099 13.6289 16.9119 12.9529 15.7889C12.6367 15.2612 12.3398 14.7222 12.0629 14.1729C11.7862 14.7218 11.4897 15.2605 11.1739 15.7879C10.4979 16.9119 9.63789 18.1099 8.62189 18.9649C7.60889 19.8169 6.18989 20.5209 4.56989 20.0369C2.84889 19.5219 2.08789 17.9169 1.80289 16.5119C1.50689 15.0499 1.60289 13.3349 1.95989 11.7389C2.31789 10.1429 2.97089 8.5189 3.91989 7.2769C4.85989 6.0449 6.27389 4.9769 8.10389 5.1029C9.81989 5.2229 11.0669 6.3859 11.8439 7.3719L12.0639 7.6609L12.2829 7.3709C13.0599 6.3859 14.3069 5.2219 16.0229 5.1029ZM7.89589 8.0959C7.47589 8.0669 6.92589 8.2819 6.30389 9.0979C5.68989 9.9029 5.17989 11.0909 4.88689 12.3959C4.59489 13.7009 4.55189 14.9749 4.74289 15.9159C4.90789 16.7259 5.17289 17.0169 5.33489 17.1189L5.40289 17.1529L5.42989 17.1629C5.66189 17.2329 6.04389 17.2129 6.68989 16.6689C7.33489 16.1269 7.99289 15.2559 8.60389 14.2419C8.87589 13.7889 9.12889 13.3249 9.35589 12.8789L9.61589 12.3539L9.84889 11.8569L10.0549 11.3989L10.2299 10.9919L10.3729 10.6459C10.1794 10.2573 9.95782 9.88328 9.70989 9.5269C9.06589 8.6109 8.41989 8.1329 7.89589 8.0969V8.0959ZM16.2309 8.0959C15.7069 8.1329 15.0609 8.6109 14.4169 9.5269C14.1689 9.88327 13.9474 10.2573 13.7539 10.6459L13.9809 11.1889L14.1709 11.6229L14.2779 11.8569L14.5119 12.3539L14.7719 12.8789C14.9989 13.3249 15.2509 13.7889 15.5229 14.2419C16.1339 15.2559 16.7929 16.1269 17.4359 16.6689C18.0369 17.1749 18.4089 17.2269 18.6459 17.1759L18.6979 17.1629C18.8279 17.1229 19.1809 16.9139 19.3839 15.9149C19.5739 14.9749 19.5329 13.7009 19.2399 12.3949C18.9479 11.0909 18.4379 9.9029 17.8229 9.0979C17.1999 8.2819 16.6509 8.0679 16.2309 8.0959Z" fill="#0033FF"/>
</svg>
