<svg width="33" height="33" viewBox="0 0 33 33" fill="none" xmlns="http://www.w3.org/2000/svg">
<mask id="mask0_2323_125893" style="mask-type:luminance" maskUnits="userSpaceOnUse" x="0" y="0" width="33" height="33">
<path d="M0.5 0.5H32.5V32.5H0.5V0.5Z" fill="white"/>
</mask>
<g mask="url(#mask0_2323_125893)">
<path d="M11.1325 7.64788C11.039 7.74516 10.9627 7.85764 10.9068 7.98051L10.9001 7.97377L1.45505 29.2496L1.46431 29.2588C1.28916 29.5982 1.58221 30.2887 2.18263 30.89C2.78221 31.4896 3.47274 31.7826 3.8121 31.6075L3.82053 31.6159L25.098 22.1717L25.0913 22.1641C25.2159 22.1051 25.3287 22.0336 25.4239 21.9384C26.7393 20.623 24.6062 16.3578 20.6601 12.4117C16.714 8.46472 12.4479 6.33251 11.1325 7.64788Z" fill="#DD2E44"/>
<path d="M12.2896 11.4473L1.69252 28.7155L1.45505 29.2503L1.46431 29.2587C1.28916 29.5989 1.58221 30.2886 2.18263 30.8898C2.36319 31.0683 2.5635 31.2257 2.77968 31.3589L15.658 15.6578L12.2896 11.4473Z" fill="#EA596E"/>
<path d="M20.7257 12.3453C24.6583 16.2796 26.8419 20.4733 25.6006 21.7137C24.3602 22.9542 20.1665 20.7714 16.2314 16.8388C12.2979 12.9045 10.1152 8.70995 11.3556 7.46868C12.5969 6.22826 16.7905 8.41184 20.7257 12.3453Z" fill="#A0041E"/>
<path d="M16.9996 12.803C16.9137 12.8727 16.8148 12.9246 16.7087 12.9556C16.6026 12.9867 16.4914 12.9964 16.3815 12.9841C15.6505 12.9049 15.0358 12.6506 14.6055 12.2489C14.1499 11.8236 13.9251 11.2535 13.9865 10.6809C14.0943 9.67712 15.1015 8.75586 16.8185 8.94196C17.4863 9.01354 17.7844 8.7988 17.7937 8.69607C17.8055 8.59417 17.5604 8.32049 16.8935 8.24807C16.1617 8.16891 15.5478 7.91459 15.1166 7.51291C14.6611 7.08765 14.4354 6.5167 14.4977 5.94491C14.6072 4.94112 15.6135 4.01986 17.3288 4.20596C17.8156 4.25817 18.0716 4.15712 18.1802 4.09228C18.2678 4.03922 18.3023 3.9887 18.3057 3.96007C18.315 3.85817 18.0733 3.58449 17.4038 3.51207C17.1852 3.48395 16.9863 3.37126 16.8499 3.19817C16.7135 3.02509 16.6503 2.80542 16.674 2.5863C16.6977 2.36718 16.8064 2.16608 16.9766 2.02618C17.1469 1.88627 17.3653 1.81869 17.5848 1.83796C19.3002 2.02238 20.0884 3.13649 19.9798 4.14112C19.8712 5.14491 18.8648 6.06533 17.1478 5.88007C16.6611 5.82701 16.4059 5.92807 16.2973 5.99291C16.2105 6.04596 16.1752 6.09733 16.1718 6.12512C16.1608 6.22786 16.4042 6.50154 17.0737 6.57396C18.7891 6.75838 19.5773 7.87249 19.4686 8.87712C19.36 9.88091 18.3528 10.8022 16.6375 10.6161C16.1507 10.5639 15.8947 10.6641 15.7853 10.7289C15.6985 10.782 15.6648 10.8333 15.6615 10.862C15.6505 10.9639 15.8939 11.2375 16.5625 11.31C16.7285 11.3272 16.8856 11.3935 17.0137 11.5003C17.1419 11.6071 17.2354 11.7496 17.2822 11.9098C17.3291 12.0699 17.3273 12.2404 17.2769 12.3994C17.2266 12.5585 17.13 12.699 16.9996 12.803Z" fill="#AA8DD8"/>
<path d="M27.1645 20.59C28.8259 20.121 29.972 20.862 30.2449 21.8346C30.5177 22.8064 29.9266 24.0367 28.2668 24.5033C27.6184 24.6852 27.4238 24.9951 27.4499 25.0944C27.4786 25.1938 27.8078 25.3572 28.4546 25.1736C30.1152 24.7071 31.2613 25.4481 31.5342 26.4199C31.8095 27.3925 31.2167 28.6212 29.5552 29.0894C28.9076 29.2713 28.7123 29.582 28.7409 29.6805C28.7687 29.7791 29.0971 29.9416 29.7447 29.7605C29.8521 29.7273 29.9651 29.716 30.077 29.7271C30.1889 29.7383 30.2974 29.7718 30.3962 29.8255C30.495 29.8793 30.5819 29.9524 30.652 30.0403C30.7221 30.1283 30.7738 30.2293 30.8042 30.3376C30.8346 30.4459 30.843 30.5592 30.8289 30.6707C30.8147 30.7823 30.7784 30.8899 30.7221 30.9872C30.6657 31.0845 30.5904 31.1695 30.5006 31.2373C30.4109 31.305 30.3085 31.3541 30.1994 31.3816C28.5405 31.849 27.3927 31.1096 27.1182 30.1361C26.8453 29.1643 27.4373 27.9357 29.0996 27.4675C29.7472 27.2847 29.9426 26.9757 29.9139 26.8763C29.8862 26.7778 29.5586 26.6136 28.911 26.7955C27.2495 27.2637 26.1034 26.5243 25.8297 25.5508C25.556 24.5782 26.148 23.3496 27.8104 22.8814C28.4563 22.7003 28.6516 22.3887 28.6238 22.2911C28.5952 22.1908 28.2685 22.0275 27.62 22.2102C27.5123 22.2449 27.3986 22.2575 27.2858 22.2472C27.1731 22.237 27.0635 22.2041 26.9638 22.1506C26.864 22.097 26.7761 22.0239 26.7052 21.9356C26.6344 21.8472 26.5821 21.7455 26.5514 21.6365C26.5208 21.5275 26.5124 21.4135 26.5269 21.3012C26.5413 21.1889 26.5782 21.0806 26.6355 20.983C26.6927 20.8853 26.769 20.8001 26.8599 20.7326C26.9508 20.6651 27.0544 20.6166 27.1645 20.59Z" fill="#77B255"/>
<path d="M20.7168 18.3188C20.5424 18.3186 20.3724 18.2643 20.2302 18.1634C20.0879 18.0625 19.9805 17.9199 19.9227 17.7554C19.8649 17.5909 19.8595 17.4125 19.9073 17.2448C19.9551 17.0771 20.0537 16.9284 20.1896 16.8191C20.3732 16.6717 24.7522 13.2325 30.9408 14.1176C31.0502 14.1332 31.1555 14.1702 31.2507 14.2265C31.3458 14.2828 31.4289 14.3573 31.4953 14.4458C31.5616 14.5342 31.6098 14.6349 31.6372 14.742C31.6646 14.8491 31.6706 14.9606 31.6549 15.07C31.6397 15.1797 31.603 15.2854 31.5467 15.3808C31.4905 15.4762 31.4159 15.5595 31.3272 15.6259C31.2386 15.6923 31.1377 15.7405 31.0303 15.7677C30.9229 15.7948 30.8112 15.8004 30.7016 15.7841C25.2338 15.0077 21.281 18.1033 21.2423 18.1344C21.0933 18.2541 20.9079 18.3191 20.7168 18.3188Z" fill="#AA8DD8"/>
<path d="M6.18815 14.8159C6.0568 14.816 5.92725 14.7853 5.80988 14.7263C5.6925 14.6674 5.59054 14.5818 5.51215 14.4764C5.43375 14.371 5.3811 14.2487 5.3584 14.1193C5.3357 13.99 5.34358 13.8571 5.38141 13.7313C6.33552 10.554 7.20036 5.48371 6.13762 4.16244C6.01804 4.01255 5.83952 3.86518 5.42857 3.89634C4.63783 3.95613 4.71362 5.6235 4.71447 5.64034C4.72516 5.7519 4.71348 5.86448 4.68011 5.97147C4.64673 6.07846 4.59234 6.17771 4.52011 6.26341C4.44788 6.3491 4.35928 6.41952 4.25948 6.47053C4.15969 6.52154 4.05072 6.55212 3.93895 6.56047C3.82719 6.56882 3.71489 6.55478 3.60862 6.51917C3.50235 6.48355 3.40427 6.42709 3.3201 6.35308C3.23594 6.27907 3.1674 6.189 3.1185 6.08816C3.06959 5.98732 3.04131 5.87773 3.03531 5.76581C2.94773 4.60455 3.30983 2.36792 5.30141 2.21718C6.19068 2.14981 6.9292 2.45887 7.45131 3.10729C9.44794 5.59234 7.42099 12.7974 6.99404 14.2163C6.94194 14.3896 6.83543 14.5415 6.69028 14.6494C6.54513 14.7574 6.36906 14.8158 6.18815 14.8159Z" fill="#77B255"/>
<path d="M24.0818 9.34231C24.0818 9.50825 24.0491 9.67255 23.9855 9.82583C23.9219 9.97911 23.8288 10.1184 23.7115 10.2357C23.5941 10.353 23.4548 10.446 23.3014 10.5094C23.1481 10.5729 22.9838 10.6055 22.8178 10.6055C22.6519 10.6054 22.4876 10.5727 22.3343 10.5091C22.181 10.4456 22.0418 10.3525 21.9245 10.2351C21.8072 10.1177 21.7142 9.97838 21.6507 9.82505C21.5873 9.67173 21.5546 9.5074 21.5547 9.34147C21.5548 9.00635 21.688 8.68499 21.9251 8.44811C22.1621 8.21122 22.4836 8.0782 22.8187 8.07831C23.1538 8.07842 23.4752 8.21166 23.712 8.4487C23.9489 8.68575 24.082 9.00719 24.0818 9.34231Z" fill="#5C913B"/>
<path d="M4.71301 16.4999C4.71296 16.7211 4.66933 16.9402 4.58462 17.1445C4.49991 17.3489 4.37577 17.5346 4.2193 17.691C4.06283 17.8474 3.87708 17.9714 3.67267 18.056C3.46826 18.1406 3.24919 18.1841 3.02796 18.1841C2.80673 18.184 2.58768 18.1404 2.38331 18.0557C2.17894 17.971 1.99326 17.8468 1.83687 17.6904C1.68048 17.5339 1.55643 17.3482 1.47182 17.1437C1.38721 16.9393 1.34369 16.7203 1.34375 16.499C1.34386 16.0522 1.52146 15.6238 1.83746 15.3079C2.15347 14.9921 2.58201 14.8147 3.0288 14.8148C3.47559 14.8149 3.90404 14.9925 4.21989 15.3085C4.53574 15.6245 4.71312 16.0531 4.71301 16.4999Z" fill="#9266CC"/>
<path d="M29.9725 17.7632C29.9724 17.9291 29.9397 18.0934 29.8761 18.2467C29.8126 18.4 29.7195 18.5393 29.6021 18.6566C29.4847 18.7739 29.3454 18.8669 29.1921 18.9303C29.0387 18.9938 28.8744 19.0264 28.7085 19.0264C28.5425 19.0263 28.3782 18.9936 28.225 18.93C28.0717 18.8665 27.9324 18.7733 27.8151 18.656C27.6978 18.5386 27.6048 18.3993 27.5413 18.2459C27.4779 18.0926 27.4453 17.9283 27.4453 17.7624C27.4454 17.4272 27.5787 17.1059 27.8157 16.869C28.0528 16.6321 28.3742 16.4991 28.7093 16.4992C29.0444 16.4993 29.3658 16.6326 29.6027 16.8696C29.8396 17.1066 29.9726 17.4281 29.9725 17.7632Z" fill="#5C913B"/>
<path d="M22.3943 27.8687C22.3943 28.0346 22.3616 28.1989 22.298 28.3522C22.2344 28.5055 22.1413 28.6447 22.024 28.762C21.9066 28.8793 21.7673 28.9724 21.6139 29.0358C21.4606 29.0993 21.2963 29.1319 21.1303 29.1318C20.9644 29.1318 20.8001 29.099 20.6468 29.0355C20.4935 28.9719 20.3543 28.8788 20.237 28.7614C20.1197 28.6441 20.0267 28.5047 19.9632 28.3514C19.8998 28.1981 19.8671 28.0338 19.8672 27.8678C19.8673 27.5327 20.0005 27.2114 20.2376 26.9745C20.4746 26.7376 20.7961 26.6046 21.1312 26.6047C21.4663 26.6048 21.7877 26.738 22.0245 26.9751C22.2614 27.2121 22.3945 27.5336 22.3943 27.8687Z" fill="#5C913B"/>
<path d="M26.6115 4.71081C26.6114 4.93204 26.5678 5.15109 26.4831 5.35546C26.3983 5.55983 26.2742 5.74551 26.1177 5.9019C25.9613 6.05829 25.7755 6.18234 25.5711 6.26695C25.3667 6.35156 25.1476 6.39507 24.9264 6.39502C24.7052 6.39496 24.4861 6.35134 24.2817 6.26662C24.0774 6.18191 23.8917 6.05778 23.7353 5.9013C23.5789 5.74483 23.4549 5.55909 23.3703 5.35468C23.2857 5.15027 23.2421 4.9312 23.2422 4.70997C23.2423 4.26317 23.4199 3.83473 23.7359 3.51888C24.0519 3.20303 24.4804 3.02565 24.9272 3.02576C25.374 3.02587 25.8025 3.20346 26.1183 3.51947C26.4342 3.83548 26.6116 4.26402 26.6115 4.71081Z" fill="#FFCC4D"/>
<path d="M29.9725 8.50003C29.9724 8.66596 29.9397 8.83026 29.8761 8.98354C29.8126 9.13683 29.7195 9.27609 29.6021 9.39339C29.4847 9.51068 29.3454 9.60371 29.1921 9.66716C29.0387 9.73061 28.8744 9.76324 28.7085 9.76318C28.5425 9.76313 28.3782 9.73039 28.225 9.66684C28.0717 9.60329 27.9324 9.51017 27.8151 9.39279C27.6978 9.27542 27.6048 9.13609 27.5413 8.98277C27.4779 8.82944 27.4453 8.66512 27.4453 8.49918C27.4454 8.16406 27.5787 7.84271 27.8157 7.60582C28.0528 7.36893 28.3742 7.23591 28.7093 7.23603C29.0444 7.23614 29.3658 7.36937 29.6027 7.60642C29.8396 7.84346 29.9726 8.1649 29.9725 8.50003Z" fill="#FFCC4D"/>
<path d="M27.449 11.8687C27.449 12.0346 27.4162 12.1989 27.3527 12.3522C27.2891 12.5055 27.196 12.6447 27.0786 12.762C26.9613 12.8793 26.8219 12.9724 26.6686 13.0358C26.5153 13.0993 26.351 13.1319 26.185 13.1318C26.0191 13.1318 25.8548 13.099 25.7015 13.0355C25.5482 12.9719 25.409 12.8788 25.2917 12.7614C25.1744 12.6441 25.0813 12.5047 25.0179 12.3514C24.9544 12.1981 24.9218 12.0338 24.9219 11.8678C24.922 11.5327 25.0552 11.2114 25.2923 10.9745C25.5293 10.7376 25.8508 10.6046 26.1859 10.6047C26.521 10.6048 26.8423 10.738 27.0792 10.9751C27.3161 11.2121 27.4491 11.5336 27.449 11.8687Z" fill="#FFCC4D"/>
<path d="M8.9256 21.1319C8.92554 21.2978 8.8928 21.4621 8.82925 21.6154C8.7657 21.7687 8.67258 21.9079 8.5552 22.0252C8.43783 22.1425 8.2985 22.2355 8.14518 22.299C7.99185 22.3624 7.82753 22.3951 7.6616 22.395C7.49566 22.395 7.33136 22.3622 7.17808 22.2987C7.02479 22.2351 6.88553 22.142 6.76823 22.0246C6.65094 21.9073 6.55791 21.7679 6.49446 21.6146C6.43101 21.4613 6.39838 21.297 6.39844 21.131C6.39855 20.7959 6.53178 20.4745 6.76883 20.2377C7.00588 20.0008 7.32732 19.8677 7.66244 19.8679C7.99756 19.868 8.31891 20.0012 8.5558 20.2383C8.79269 20.4753 8.92571 20.7967 8.9256 21.1319Z" fill="#FFCC4D"/>
</g>
</svg>
