<svg width="25" height="25" viewBox="0 0 25 25" fill="none" xmlns="http://www.w3.org/2000/svg">
<path d="M5.92236 19.3374C5.71539 19.296 5.54982 19.2546 5.34285 19.1718C5.13589 19.089 4.97032 19.0476 4.80474 18.9648C4.43221 18.7993 4.10106 18.5923 3.76992 18.3439C3.10763 17.8886 2.56952 17.2677 2.15559 16.5226C1.74166 15.819 1.4933 14.9911 1.45191 14.2046C1.41051 13.7907 1.45191 13.4182 1.4933 13.0042C1.53469 12.7973 1.57609 12.6317 1.61748 12.4247C1.65887 12.2178 1.74166 12.0522 1.78305 11.8452L1.82445 12.4247C1.82445 12.6317 1.86584 12.7973 1.90723 13.0042C1.94862 13.3768 2.03141 13.7493 2.1142 14.0804C2.27977 14.7841 2.52813 15.4464 2.90066 16.0673C3.2732 16.6882 3.68713 17.2677 4.22524 17.8058C4.4736 18.0542 4.76335 18.3025 5.0531 18.5509C5.17728 18.6751 5.34285 18.7993 5.50843 18.9234L5.92236 19.3374ZM5.79818 20.8275C5.674 20.9103 5.50843 20.9517 5.34285 20.9931C5.17728 21.0345 5.0531 21.0759 4.88753 21.0759C4.59778 21.1173 4.26663 21.1587 3.93549 21.1173C3.31459 21.0759 2.65231 20.9103 2.1142 20.6205C1.53469 20.3308 1.03798 19.8755 0.706833 19.3374C0.541261 19.089 0.375689 18.7993 0.25151 18.5095C0.210117 18.3853 0.168724 18.2198 0.127331 18.0542C0.127331 17.93 0.0859375 17.8058 0.0859375 17.6402C0.210117 17.7644 0.292903 17.8886 0.375689 17.9714C0.499868 18.0956 0.582654 18.2198 0.66544 18.3025C0.872405 18.5095 1.03798 18.7165 1.24494 18.882C1.65887 19.2546 2.0728 19.5857 2.56952 19.8341C3.02484 20.0824 3.56295 20.2894 4.05967 20.455C4.30803 20.5378 4.59778 20.5792 4.88753 20.6619C5.01171 20.7033 5.17728 20.7033 5.30146 20.7447C5.50843 20.7861 5.63261 20.7861 5.79818 20.8275ZM15.153 0.710494C15.36 0.751887 15.5255 0.834673 15.7325 0.917459C15.9395 1.00025 16.105 1.08303 16.2706 1.16582C16.6432 1.37278 16.9743 1.57975 17.3054 1.82811C17.9677 2.32482 18.5058 2.98711 18.8784 3.73219C19.2509 4.47726 19.4579 5.30512 19.4579 6.09159C19.4579 6.50552 19.4165 6.87806 19.3337 7.29199C19.2923 7.49895 19.2509 7.66452 19.1681 7.87149C19.0853 8.07845 19.044 8.24403 18.9612 8.4096L18.9198 7.8301C18.9198 7.62313 18.9198 7.45756 18.8784 7.25059L18.7542 6.13298C18.63 5.4293 18.3817 4.72562 18.0505 4.06333C17.7194 3.40104 17.3054 2.82154 16.8087 2.28343C16.5604 1.99368 16.2706 1.74532 16.0223 1.45557C15.8981 1.33139 15.7325 1.20721 15.5669 1.08303L15.153 0.710494ZM18.7542 0.544922C18.9198 0.586315 19.044 0.627708 19.1681 0.710494C19.2923 0.751887 19.4579 0.834673 19.5821 0.917459C19.8304 1.08303 20.0788 1.2486 20.3271 1.45557C20.7825 1.8695 21.155 2.36622 21.362 2.94572C21.6103 3.52522 21.6931 4.14612 21.6103 4.76701C21.5689 5.05676 21.4861 5.34651 21.4034 5.63627C21.362 5.76044 21.2792 5.92602 21.2378 6.0502C21.155 6.17438 21.1136 6.29855 20.9894 6.42273V6.0088V5.59487C20.9894 5.30512 20.948 5.05676 20.948 4.8084C20.8652 4.2703 20.7825 3.77358 20.5755 3.31826C20.3685 2.82154 20.1202 2.40761 19.8304 1.95229C19.6648 1.74532 19.4993 1.49696 19.3337 1.29C19.2509 1.16582 19.1681 1.08303 19.044 0.958852C18.9612 0.751887 18.837 0.627708 18.7542 0.544922Z" fill="#42ADE2"/>
<path d="M3.3973 6.71251C2.56944 7.08505 2.27969 8.07848 2.65223 8.90634L7.86775 19.7927L10.7653 18.4267L5.54974 7.49898C5.17721 6.67112 4.22517 6.29858 3.3973 6.71251ZM17.0984 15.3637L20.1615 13.9149L14.2009 1.49699C13.787 0.669128 12.7935 0.296591 11.9243 0.710521C11.0964 1.12445 10.7239 2.11788 11.1378 2.98714L17.0984 15.3637Z" fill="#FFDD67"/>
<path d="M11.9671 0.6691C11.8843 0.710493 11.8015 0.751886 11.7188 0.834672C12.5052 0.627707 13.3331 1.00024 13.7056 1.74532L19.6662 14.1632L20.2043 13.9149L14.2437 1.49696C13.8298 0.627707 12.8364 0.25517 11.9671 0.6691Z" fill="#EBA352"/>
<path d="M10.7695 18.3854L13.9568 16.8539L7.87199 4.18759C7.45806 3.31834 6.38184 2.90441 5.51259 3.31834C4.64333 3.73227 4.27079 4.80849 4.68473 5.67774L10.7695 18.3854Z" fill="#FFDD67"/>
<path d="M5.50617 3.35963C5.42338 3.40103 5.3406 3.44242 5.25781 3.52521C6.04428 3.31824 6.95493 3.69078 7.32746 4.47725L11.0942 12.3833L12.0049 12.9214L7.86557 4.22889C7.45164 3.31824 6.41682 2.9457 5.50617 3.35963Z" fill="#EBA352"/>
<path d="M13.457 15.8602L16.6443 14.3287L10.5595 1.66243C10.1456 0.793179 9.06934 0.379248 8.20009 0.834572C7.33083 1.2485 6.95829 2.32472 7.37223 3.19397L13.457 15.8602Z" fill="#FFDD67"/>
<path d="M8.19839 0.793228C8.1156 0.834621 8.03282 0.917407 7.95003 0.9588C8.7365 0.751835 9.64715 1.12437 10.0197 1.91084L14.2832 10.8517L15.1938 11.3898L10.5578 1.66248C10.1439 0.751835 9.06764 0.379297 8.19839 0.793228ZM3.3968 6.71243C3.31401 6.75383 3.23122 6.79522 3.14844 6.878C3.89351 6.67104 4.67998 7.04358 5.01112 7.78865L8.1156 14.2874L9.02625 14.8255L5.54923 7.54029C5.1767 6.67104 4.22466 6.2985 3.3968 6.71243Z" fill="#EBA352"/>
<path d="M24.4283 5.47099C23.3107 4.60174 21.4894 5.55378 20.5787 8.53408C19.9578 10.6037 19.875 11.2246 18.5505 11.8455L17.8054 10.314C17.8054 10.314 6.04976 15.9848 6.50508 16.8955C6.50508 16.8955 7.91244 21.2831 10.3132 23.3114C13.873 26.3745 22.193 23.1044 22.5656 15.1984C22.7725 10.6037 25.6287 6.42303 24.4283 5.47099Z" fill="#FFDD67"/>
<path d="M24.4193 5.4709C24.2123 5.30533 23.964 5.22255 23.7156 5.18115C23.757 5.22255 23.8398 5.22255 23.8812 5.26394C25.123 6.21598 23.8398 8.40981 23.1361 10.3967C22.5566 11.9696 22.0599 13.5839 22.1427 15.1569C22.4738 22.0281 15.5612 25.2982 11.4219 24.0564C15.4784 25.7535 23.0119 22.5248 22.6808 15.3638C22.598 13.7909 23.0533 12.2594 23.6742 10.6036C24.3365 8.61677 25.6197 6.42294 24.4193 5.4709Z" fill="#EBA352"/>
<path d="M18.9161 11.6802C16.3498 11.9699 12.583 15.6539 15.2321 19.669C13.2867 15.6125 16.4739 12.8806 18.5022 11.9285C18.7092 11.763 18.9161 11.6802 18.9161 11.6802Z" fill="#EBA352"/>
</svg>
