<svg width="24" height="25" viewBox="0 0 24 25" fill="none" xmlns="http://www.w3.org/2000/svg">
<path d="M1.51235 17.0999L8.91809 4.42139C9.8588 4.97521 14.6024 7.60041 15.3685 8.09969L7.96275 20.7789C7.15283 21.8489 0.486248 18.7237 1.51235 17.0992V17.0999Z" fill="#0033FF" fill-opacity="0.5"/>
<path d="M22.7908 17.0995L15.3851 4.42173C14.3497 2.69873 12.1199 2.07258 10.2885 3.09022C8.45698 4.10787 7.89932 6.3 8.93465 8.09995L16.3404 20.7793C17.3757 22.5015 19.6056 23.1275 21.4371 22.11C23.1885 21.0922 23.8261 18.8224 22.7908 17.101V17.0995Z" fill="#0033FF"/>
<path d="M4.71751 22.5994C6.77064 22.5994 8.43503 20.9764 8.43503 18.9743C8.43503 16.9722 6.77064 15.3491 4.71751 15.3491C2.66439 15.3491 1 16.9722 1 18.9743C1 20.9764 2.66439 22.5994 4.71751 22.5994Z" fill="#0033FF"/>
</svg>
