<svg width="24" height="25" viewBox="0 0 24 25" fill="none" xmlns="http://www.w3.org/2000/svg">
<g clip-path="url(#clip0_286_4573)">
<path d="M12 2.6001C6.48 2.6001 2 7.0801 2 12.6001C2 18.1201 6.48 22.6001 12 22.6001C17.52 22.6001 22 18.1201 22 12.6001C22 7.0801 17.52 2.6001 12 2.6001ZM4 12.6001C4 11.9901 4.08 11.3901 4.21 10.8201L8.99 15.6001V16.6001C8.99 17.7001 9.89 18.6001 10.99 18.6001V20.5301C7.06 20.0301 4 16.6701 4 12.6001ZM17.89 18.0001C17.63 17.1901 16.89 16.6001 15.99 16.6001H14.99V13.6001C14.99 13.0501 14.54 12.6001 13.99 12.6001H7.99V10.6001H9.99C10.54 10.6001 10.99 10.1501 10.99 9.6001V7.6001H12.99C14.09 7.6001 14.99 6.7001 14.99 5.6001V5.1901C17.92 6.3701 20 9.2501 20 12.6001C20 14.6801 19.19 16.5801 17.89 18.0001Z" fill="#0033FF"/>
</g>
<defs>
<clipPath id="clip0_286_4573">
<rect width="24" height="24" fill="white" transform="translate(0 0.600098)"/>
</clipPath>
</defs>
</svg>
