<svg width="80" height="80" viewBox="0 0 80 80" fill="none" xmlns="http://www.w3.org/2000/svg">
<g clip-path="url(#clip0_504_166775)">
<path d="M39.9994 6.6665C21.5993 6.6665 6.66602 21.5998 6.66602 39.9998C6.66602 58.3998 21.5993 73.3332 39.9994 73.3332C58.3994 73.3332 73.3327 58.3998 73.3327 39.9998C73.3327 21.5998 58.3994 6.6665 39.9994 6.6665ZM39.9994 66.6665C25.2994 66.6665 13.3327 54.6998 13.3327 39.9998C13.3327 25.2998 25.2994 13.3332 39.9994 13.3332C54.6994 13.3332 66.666 25.2998 66.666 39.9998C66.666 54.6998 54.6994 66.6665 39.9994 66.6665ZM41.0327 37.1332C35.1327 35.6332 33.2327 33.9998 33.2327 31.5665C33.2327 28.7665 35.866 26.7998 40.2327 26.7998C44.8327 26.7998 46.566 28.9998 46.6994 32.2665H52.3994C52.2327 27.7998 49.4993 23.6998 44.0993 22.3665V16.6665H36.3327V22.2998C31.2993 23.3665 27.266 26.6332 27.266 31.6665C27.266 37.6332 32.2327 40.6332 39.466 42.3665C45.966 43.8998 47.266 46.1998 47.266 48.5998C47.266 50.3665 45.966 53.2332 40.266 53.2332C34.9327 53.2332 32.8327 50.8332 32.5327 47.7665H26.7994C27.1327 53.4332 31.3327 56.6332 36.3327 57.6665V63.3332H44.1327V57.7665C49.1993 56.7998 53.1994 53.8998 53.2327 48.5332C53.1994 41.1998 46.8994 38.6665 41.0327 37.1332Z" fill="#0033FF"/>
</g>
<defs>
<clipPath id="clip0_504_166775">
<rect width="80" height="80" fill="white"/>
</clipPath>
</defs>
</svg>
