<svg width="24" height="25" viewBox="0 0 24 25" fill="none" xmlns="http://www.w3.org/2000/svg">
<path d="M17.3125 2.6001H6.6875C4.09867 2.6001 2 4.69876 2 7.2876V17.9126C2 20.5014 4.09867 22.6001 6.6875 22.6001H17.3125C19.9013 22.6001 22 20.5014 22 17.9126V7.2876C22 4.69876 19.9013 2.6001 17.3125 2.6001Z" fill="#0033FF"/>
<path d="M16.4112 19.6001H18.6877C18.7702 19.6001 18.8493 19.5673 18.9077 19.5088C18.966 19.4504 18.9988 19.3712 18.9988 19.2885L19 14.4702C19 11.9517 18.4583 10.016 15.5204 10.016C14.4036 9.97435 13.3504 10.5511 12.7821 11.5141C12.7793 11.5188 12.775 11.5224 12.77 11.5245C12.765 11.5265 12.7594 11.5268 12.7542 11.5254C12.7489 11.524 12.7443 11.5209 12.741 11.5166C12.7376 11.5123 12.7358 11.507 12.7358 11.5015V10.5601C12.7358 10.4775 12.703 10.3982 12.6447 10.3397C12.5863 10.2813 12.5072 10.2485 12.4247 10.2485H10.2642C10.1817 10.2485 10.1026 10.2813 10.0442 10.3397C9.9859 10.3982 9.95312 10.4775 9.95312 10.5601V19.2881C9.95312 19.3707 9.9859 19.45 10.0442 19.5084C10.1026 19.5669 10.1817 19.5997 10.2642 19.5997H12.5406C12.6231 19.5997 12.7023 19.5669 12.7606 19.5084C12.819 19.45 12.8517 19.3707 12.8517 19.2881V14.9737C12.8517 13.7538 13.0827 12.5724 14.5925 12.5724C16.0808 12.5724 16.1001 13.9683 16.1001 15.0527V19.2884C16.1001 19.3711 16.1328 19.4504 16.1912 19.5088C16.2495 19.5673 16.3287 19.6001 16.4112 19.6001ZM5 7.28522C5 8.2096 5.75966 8.9702 6.68249 8.9702C7.60509 8.97012 8.36428 8.20905 8.36428 7.28483C8.36412 6.36062 7.60486 5.6001 6.68218 5.6001C5.75927 5.6001 5 6.36085 5 7.28522ZM5.54126 19.6001H7.82069C7.9032 19.6001 7.98233 19.5673 8.04068 19.5088C8.09902 19.4504 8.1318 19.3711 8.1318 19.2884V10.5601C8.1318 10.4775 8.09902 10.3982 8.04068 10.3397C7.98233 10.2813 7.9032 10.2485 7.82069 10.2485H5.54126C5.45874 10.2485 5.37961 10.2813 5.32127 10.3397C5.26292 10.3982 5.23014 10.4775 5.23014 10.5601V19.2884C5.23014 19.3711 5.26292 19.4504 5.32127 19.5088C5.37961 19.5673 5.45874 19.6001 5.54126 19.6001Z" fill="white"/>
</svg>
