<svg width="24" height="25" viewBox="0 0 24 25" fill="none" xmlns="http://www.w3.org/2000/svg">
<g clip-path="url(#clip0_286_4521)">
<rect width="24" height="24" transform="translate(0 0.600098)" fill="white"/>
<path d="M22 12.6001C22 7.0801 17.52 2.6001 12 2.6001C6.48 2.6001 2 7.0801 2 12.6001C2 17.4401 5.44 21.4701 10 22.4001V15.6001H8V12.6001H10V10.1001C10 8.1701 11.57 6.6001 13.5 6.6001H16V9.6001H14C13.45 9.6001 13 10.0501 13 10.6001V12.6001H16V15.6001H13V22.5501C18.05 22.0501 22 17.7901 22 12.6001Z" fill="#0033FF"/>
</g>
<defs>
<clipPath id="clip0_286_4521">
<rect width="24" height="24" fill="white" transform="translate(0 0.600098)"/>
</clipPath>
</defs>
</svg>
