<svg width="20" height="20" viewBox="0 0 20 20" fill="none" xmlns="http://www.w3.org/2000/svg">
<path d="M7.89213 4.71213C7.97183 4.41612 8.3918 4.41612 8.4715 4.71213L9.87254 9.91564C9.90034 10.0189 9.98098 10.0995 10.0842 10.1273L15.2877 11.5284C15.5837 11.6081 15.5837 12.028 15.2877 12.1077L10.0842 13.5088C9.98098 13.5366 9.90034 13.6172 9.87254 13.7205L8.4715 18.924C8.3918 19.22 7.97183 19.22 7.89213 18.924L6.4911 13.7205C6.4633 13.6172 6.38265 13.5366 6.27941 13.5088L1.0759 12.1077C0.779892 12.028 0.779893 11.6081 1.0759 11.5284L6.27941 10.1273C6.38265 10.0995 6.4633 10.0189 6.4911 9.91564L7.89213 4.71213Z" fill="#34A853"/>
<path d="M15.6196 1.0759C15.6993 0.779892 16.1193 0.779893 16.199 1.0759L16.7322 3.05632C16.76 3.15956 16.8406 3.2402 16.9439 3.268L18.9243 3.80123C19.2203 3.88092 19.2203 4.30089 18.9243 4.38059L16.9439 4.91382C16.8406 4.94161 16.76 5.02226 16.7322 5.1255L16.199 7.10592C16.1193 7.40193 15.6993 7.40193 15.6196 7.10592L15.0864 5.1255C15.0586 5.02226 14.9779 4.94161 14.8747 4.91382L12.8943 4.38059C12.5983 4.30089 12.5983 3.88092 12.8943 3.80123L14.8747 3.268C14.9779 3.2402 15.0586 3.15956 15.0864 3.05631L15.6196 1.0759Z" fill="#34A853"/>
</svg>
