<svg width="24" height="25" viewBox="0 0 24 25" fill="none" xmlns="http://www.w3.org/2000/svg">
<path d="M21.9968 18.8301C21.9968 19.5571 21.5918 20.9571 20.6818 21.7261C20.4998 21.8661 20.3178 21.7871 20.3978 21.5831C20.6628 20.9351 21.2688 19.4361 20.9848 19.0911C20.7838 18.8291 19.9538 18.8491 19.2458 18.9091C18.9228 18.9501 18.6388 18.9691 18.4188 19.0141C18.2148 19.0301 18.1738 18.8511 18.3778 18.7111C18.6435 18.5235 18.9371 18.3791 19.2478 18.2831C20.3978 17.9391 21.7268 18.1461 21.9178 18.3661C21.9538 18.4081 21.9968 18.5271 21.9968 18.8301ZM20.0748 20.1231C19.8111 20.3248 19.5341 20.5085 19.2458 20.6731C17.1238 21.9481 14.3748 22.6161 11.9878 22.6161C8.14482 22.6161 4.70782 21.1991 2.09982 18.8281C1.87582 18.6461 2.06082 18.3821 2.32282 18.5251C5.13282 20.1651 8.61082 21.1571 12.2108 21.1571C14.4768 21.1571 16.9188 20.7331 19.2458 19.8211C19.4088 19.7601 19.5908 19.6771 19.7498 19.6191C20.1168 19.4541 20.4398 19.8611 20.0748 20.1231ZM13.9048 9.0931C13.9048 8.0521 13.9468 7.4391 13.6018 6.9131C13.2958 6.4801 12.7688 6.2201 12.0328 6.2611C11.2348 6.3051 10.3778 6.8281 10.1598 7.7871C10.1168 8.0071 9.98882 8.2231 9.72282 8.2701L7.28782 7.9601C7.11382 7.9201 6.84882 7.7871 6.93582 7.4391C7.45882 4.6881 9.80982 3.7291 12.0338 3.6001H12.5558C13.7758 3.6001 15.3438 3.9491 16.3468 4.8641C17.5638 6.0001 17.4338 7.5261 17.4338 9.1841V13.1111C17.4338 14.2891 17.9118 14.8111 18.3918 15.4251C18.5218 15.6441 18.5668 15.9021 18.3478 16.0801C17.7178 16.6418 17.0787 17.1932 16.4308 17.7341C16.2558 17.8671 15.9418 17.8811 15.8208 17.7791C15.0508 17.1341 14.8628 16.7761 14.3858 16.1211C13.5558 16.9921 12.8588 17.4731 12.0298 17.7341C11.4468 17.882 10.8473 17.9546 10.2458 17.9501C8.15582 17.9501 6.50082 16.6471 6.50082 14.0701C6.50082 12.0211 7.59082 10.6281 9.20082 9.9691C10.8108 9.3091 13.1508 9.0991 13.9048 9.0951M13.4278 14.2871C13.9478 13.4151 13.9048 12.7011 13.9048 11.1021C13.2528 11.1021 12.5988 11.1471 12.0338 11.2801C10.9888 11.5831 10.1588 12.2401 10.1588 13.6351C10.1588 14.7251 10.7268 15.4671 11.6848 15.4671C11.8168 15.4671 11.9328 15.4511 12.0328 15.4221C12.7028 15.2361 13.1208 14.9001 13.4278 14.2871Z" fill="#0033FF"/>
</svg>
