<svg width="20" height="21" viewBox="0 0 20 21" fill="none" xmlns="http://www.w3.org/2000/svg">
<path d="M15.3125 0.400391H4.6875C2.09867 0.400391 0 2.49906 0 5.08789V15.7129C0 18.3017 2.09867 20.4004 4.6875 20.4004H15.3125C17.9013 20.4004 20 18.3017 20 15.7129V5.08789C20 2.49906 17.9013 0.400391 15.3125 0.400391Z" fill="#0033FF"/>
<path d="M14.4112 17.4004H16.6877C16.7702 17.4004 16.8493 17.3676 16.9077 17.3091C16.966 17.2507 16.9988 17.1715 16.9988 17.0888L17 12.2704C17 9.75203 16.4583 7.81625 13.5204 7.81625C12.4036 7.77465 11.3504 8.35137 10.7821 9.31438C10.7793 9.31906 10.775 9.3227 10.77 9.32474C10.765 9.32679 10.7594 9.32713 10.7542 9.3257C10.7489 9.32428 10.7443 9.32118 10.741 9.31687C10.7376 9.31256 10.7358 9.30728 10.7358 9.30184V8.3604C10.7358 8.27775 10.703 8.19848 10.6447 8.14003C10.5863 8.08158 10.5072 8.04875 10.4247 8.04875H8.26423C8.18172 8.04875 8.10259 8.08158 8.04424 8.14003C7.9859 8.19848 7.95312 8.27775 7.95312 8.3604V17.0883C7.95312 17.171 7.9859 17.2503 8.04424 17.3087C8.10259 17.3672 8.18172 17.4 8.26423 17.4H10.5406C10.6231 17.4 10.7023 17.3672 10.7606 17.3087C10.819 17.2503 10.8517 17.171 10.8517 17.0883V12.774C10.8517 11.5541 11.0827 10.3727 12.5925 10.3727C14.0808 10.3727 14.1001 11.7686 14.1001 12.853V17.0887C14.1001 17.1714 14.1328 17.2507 14.1912 17.3091C14.2495 17.3676 14.3287 17.4004 14.4112 17.4004ZM3 5.08552C3 6.00989 3.75966 6.77049 4.68249 6.77049C5.60509 6.77041 6.36428 6.00935 6.36428 5.08513C6.36412 4.16091 5.60486 3.40039 4.68218 3.40039C3.75927 3.40039 3 4.16114 3 5.08552ZM3.54126 17.4004H5.82069C5.9032 17.4004 5.98233 17.3676 6.04068 17.3091C6.09902 17.2507 6.1318 17.1714 6.1318 17.0887V8.3604C6.1318 8.27775 6.09902 8.19848 6.04068 8.14003C5.98233 8.08158 5.9032 8.04875 5.82069 8.04875H3.54126C3.45874 8.04875 3.37961 8.08158 3.32127 8.14003C3.26292 8.19848 3.23014 8.27775 3.23014 8.3604V17.0887C3.23014 17.1714 3.26292 17.2507 3.32127 17.3091C3.37961 17.3676 3.45874 17.4004 3.54126 17.4004Z" fill="white"/>
</svg>
