<svg width="13" height="13" viewBox="0 0 13 13" fill="none" xmlns="http://www.w3.org/2000/svg">
<ellipse cx="6.03027" cy="6.39946" rx="6.03027" ry="6.19047" fill="#0A66C2"/>
<path d="M8.9326 5.81717H10.0697C10.3768 7.13317 9.89546 8.96566 9.6164 9.71741C9.6164 9.71741 8.61661 9.62959 7.98546 9.71741C7.34906 9.80596 7.03368 10.0567 6.40079 10.1686C5.32352 10.3592 3.6016 10.1686 3.6016 10.1686C2.99087 10.0356 3.03868 9.42452 3.13893 9.13558C2.35238 8.94559 2.47512 8.2511 2.63482 7.9276C1.97003 7.5325 2.18277 6.82011 2.37225 6.51331C2.21187 6.49834 1.89111 6.33816 1.89111 5.81717C1.89111 5.29617 2.21187 5.10635 2.37225 5.07657H5.84928C5.51394 4.61262 4.83889 3.50064 4.8214 2.76431C4.80391 2.02798 5.26598 1.73912 5.49921 1.68673C5.62315 1.65676 5.92789 1.74499 6.15532 2.33764C6.38275 2.9303 8.1016 4.90426 8.9326 5.81717Z" fill="#CCDEF5"/>
<path fill-rule="evenodd" clip-rule="evenodd" d="M5.47826 1.59391C5.67006 1.54754 6.00791 1.69322 6.24171 2.30249C6.29337 2.43708 6.43587 2.662 6.64273 2.9457C6.84727 3.22622 7.1081 3.55544 7.38855 3.8956C7.93711 4.56097 8.55804 5.26494 8.97309 5.72182H10.07C10.1128 5.72182 10.15 5.75196 10.16 5.7947C10.3178 6.47081 10.2721 7.27258 10.1544 7.99424C10.0365 8.71734 9.84476 9.36947 9.70316 9.75092C9.68845 9.79055 9.64994 9.81537 9.60878 9.81175L9.6061 9.81152L9.59781 9.81083L9.56546 9.80823C9.53721 9.80602 9.49604 9.80296 9.44463 9.79955C9.34178 9.79274 9.19809 9.78457 9.03487 9.77912C8.70696 9.76817 8.30567 9.76845 7.99817 9.81124C7.6902 9.85409 7.45995 9.93594 7.22343 10.0233C7.21216 10.0275 7.20087 10.0317 7.18955 10.0358C6.96324 10.1196 6.72686 10.2071 6.41678 10.2619C5.86797 10.359 5.15998 10.3586 4.5937 10.3347C4.30962 10.3227 4.05944 10.3048 3.88025 10.2898C3.79064 10.2823 3.71872 10.2756 3.66914 10.2707L3.61208 10.2649L3.59718 10.2633L3.59233 10.2628L3.58257 10.2617C3.41505 10.2253 3.28703 10.1541 3.19297 10.0592C3.09913 9.96457 3.04368 9.85046 3.01432 9.73408C2.9674 9.54814 2.98572 9.35197 3.02311 9.20128C2.86058 9.14948 2.73505 9.07365 2.64147 8.97981C2.53009 8.86812 2.46874 8.73563 2.44164 8.60048C2.39585 8.372 2.44746 8.1355 2.51704 7.96365C2.20922 7.75166 2.09739 7.46526 2.09092 7.1893C2.08552 6.95877 2.15327 6.73862 2.23242 6.57539C2.15733 6.54633 2.07655 6.49683 2.00508 6.42052C1.88634 6.29371 1.79883 6.09885 1.79883 5.81683C1.79883 5.24528 2.15619 5.01985 2.35604 4.98274C2.36148 4.98173 2.36699 4.98122 2.37252 4.98122H5.6694C5.50897 4.74403 5.3084 4.41617 5.13399 4.06545C4.92011 3.63539 4.73843 3.15712 4.72914 2.76629C4.7104 1.97763 5.20999 1.65416 5.47969 1.59358L5.49948 1.6864L5.47826 1.59391ZM2.425 6.60799C2.34578 6.75217 2.27087 6.96613 2.27599 7.18473C2.28131 7.412 2.3725 7.64864 2.65135 7.8265H2.82717C2.82717 7.8265 2.96515 7.80081 2.97589 7.85211C2.98663 7.90342 2.82717 7.96365 2.82717 7.96365L2.699 8.01036C2.63352 8.16001 2.58454 8.3705 2.62296 8.56217C2.64354 8.66483 2.68899 8.76181 2.77083 8.84387C2.84856 8.92182 2.96333 8.99053 3.13111 9.03532C3.13111 9.03532 3.42251 8.95227 3.4428 9.00043C3.4631 9.04859 3.21407 9.20553 3.21407 9.20553C3.17492 9.3376 3.15194 9.52166 3.19352 9.68643C3.21601 9.77558 3.25686 9.85724 3.32269 9.92363C3.38758 9.98906 3.48113 10.0441 3.61651 10.0743L3.63088 10.0759L3.6868 10.0815C3.73559 10.0863 3.80662 10.093 3.89526 10.1004C4.0726 10.1152 4.32023 10.133 4.60129 10.1448C5.16528 10.1686 5.85689 10.1681 6.38535 10.0747C6.67907 10.0227 6.90199 9.94024 7.12918 9.85618C7.13969 9.8523 7.15021 9.8484 7.16074 9.84451C7.39923 9.75641 7.64487 9.66863 7.9733 9.62293C8.29695 9.57789 8.71112 9.57818 9.04089 9.58918C9.20651 9.59471 9.35222 9.603 9.45655 9.60991C9.49515 9.61247 9.52811 9.61484 9.55434 9.61681C9.68905 9.2392 9.86272 8.63217 9.97184 7.96287C10.0835 7.27814 10.1261 6.53699 9.99602 5.91185H8.93287C8.90723 5.91185 8.88275 5.90094 8.86524 5.88171C8.44902 5.42447 7.8105 4.70155 7.24724 4.01837C6.96567 3.67684 6.70221 3.34439 6.49453 3.05958C6.28918 2.77794 6.13154 2.53387 6.06948 2.37214C5.84842 1.79609 5.57679 1.76532 5.5207 1.77888L5.51927 1.77923C5.32252 1.82343 4.89795 2.07766 4.9142 2.76166C4.92241 3.10716 5.08701 3.55305 5.29886 3.97905C5.50909 4.40178 5.75886 4.79129 5.92389 5.01962C5.94473 5.04845 5.94796 5.08688 5.93224 5.11895C5.91651 5.15102 5.88453 5.17125 5.84956 5.17125H2.3815C2.25677 5.19852 1.98394 5.35587 1.98394 5.81683C1.98394 6.05581 2.05681 6.20155 2.13854 6.28882C2.22062 6.37647 2.31733 6.41133 2.37708 6.41796C2.37708 6.41796 2.57736 6.44125 2.62848 6.44125C2.6796 6.44125 2.82717 6.51298 2.82717 6.51298L2.425 6.60799Z" fill="#0F4C8A"/>
</svg>
