<svg xmlns="http://www.w3.org/2000/svg" enable-background="new 0 0 512 512" viewBox="0 0 512 512" id="upload"><linearGradient id="a" x1="39.213" x2="472.767" y1="74.086" y2="507.64" gradientTransform="matrix(1 0 0 -1 0 512)" gradientUnits="userSpaceOnUse"><stop offset="0" stop-color="#be53ff"></stop><stop offset="1" stop-color="#4958ff"></stop></linearGradient><path fill="url(#a)" d="M372.48,465.706c1.814,3.947,1.44,8.586-0.96,12.267c-2.453,3.786-6.614,6.08-11.147,6.08h-208.8c-4.533,0-8.693-2.294-11.147-6.08c-2.4-3.733-2.72-8.32-0.96-12.32c5.12-11.36,16.48-18.667,28.96-18.667h25.014v-21.973h125.12v21.973h24.96C356,446.986,367.36,454.347,372.48,465.706z M340.694,201.493c-10.294,0-18.667,8.373-18.667,18.667V238.4c0,3.68-3.04,6.667-6.72,6.667H196.641c-3.68,0-6.667-2.986-6.667-6.667v-18.241c0-10.294-8.373-18.667-18.667-18.667c-10.294,0-18.667,8.373-18.667,18.667V238.4c0,24.267,19.733,44,44,44h118.667c24.267,0,44.053-19.733,44.053-44v-18.241C359.36,209.867,350.933,201.493,340.694,201.493z M214.294,158.24h12v65.547c0,5.867,4.747,10.667,10.667,10.667h38.08c5.92,0,10.667-4.8,10.667-10.667V158.24h12c4.373,0,8.214-2.614,9.867-6.667c1.653-4,0.694-8.586-2.4-11.627l-41.706-40.747c-4.16-4.053-10.72-4.053-14.88,0l-41.706,40.747c-3.147,3.04-4.107,7.627-2.453,11.627C206.08,155.627,209.92,158.24,214.294,158.24z M255.999,365.626c-3.411,0-6.188,2.776-6.188,6.188s2.776,6.188,6.188,6.188c3.411,0,6.188-2.776,6.188-6.188S259.41,365.626,255.999,365.626z M512,54.614c0,118.289,0,265.927,0,333.067c0,14.667-12,26.667-26.667,26.667H26.667c-14.72,0-26.667-12-26.667-26.667C0,348.299,0,97.52,0,54.614c0-14.72,11.947-26.667,26.667-26.667h458.667C500,27.947,512,39.893,512,54.614z M272.853,371.814c0-9.294-7.56-16.854-16.854-16.854s-16.854,7.56-16.854,16.854c0,9.295,7.56,16.854,16.854,16.854S272.853,381.108,272.853,371.814z M490.667,54.614c0-2.933-2.4-5.333-5.333-5.333H26.667c-2.933,0-5.333,2.4-5.333,5.333V329.28h469.333V54.614z"></path></svg>