<svg xmlns="http://www.w3.org/2000/svg" viewBox="0 0 32 32" id="cloud-upload"><defs><linearGradient id="a" x1="3.59" x2="28.41" y1="16" y2="16" gradientUnits="userSpaceOnUse"><stop offset="0" stop-color="#00aeef"></stop><stop offset="1" stop-color="#ee2a7b"></stop></linearGradient></defs><path fill="url(#a)" d="M23,22.16H18v-2H23c5.75-.48,3.5-8.91-1.7-6.46A1,1,0,0,1,20,13.31c-.64-1.41,1.42-1.86,2.43-2,0-5.66-8.22-6.85-9.72-1.48.76.3,1.76,1,1.17,1.88-.74,1.06-1.74-.1-2.61-.28-6.53-1.49-8,8.21-1.4,8.73H14v2h-3.9C1,22,1.66,8.55,10.73,9.29c2.21-7.65,13.8-5.93,13.63,2.15A5.45,5.45,0,0,1,23,22.16Zm-3.2-5.64-3.09-3.09a1,1,0,0,0-1.42,0L12.2,16.52a1,1,0,0,0,1.41,1.42L15,16.55V26.62a1,1,0,1,0,2,0V16.55l1.39,1.39a1,1,0,0,0,1.41,0A1,1,0,0,0,19.8,16.52Zm0,0-3.09-3.09a1,1,0,0,0-1.42,0L12.2,16.52a1,1,0,0,0,1.41,1.42L15,16.55V26.62a1,1,0,1,0,2,0V16.55l1.39,1.39a1,1,0,0,0,1.41,0A1,1,0,0,0,19.8,16.52Z" data-name="upload 3"></path></svg>