<svg width="32" height="33" viewBox="0 0 32 33" fill="none" xmlns="http://www.w3.org/2000/svg">
<path d="M28.8564 15.0427H7.95998L20.4671 4.18555C20.6671 4.01055 20.5457 3.68555 20.2814 3.68555H17.1207C16.9814 3.68555 16.8493 3.73555 16.7457 3.82483L3.24927 15.5355C3.12565 15.6427 3.02652 15.7752 2.95858 15.924C2.89063 16.0728 2.85547 16.2345 2.85547 16.398C2.85547 16.5616 2.89063 16.7233 2.95858 16.8721C3.02652 17.0209 3.12565 17.1534 3.24927 17.2605L16.8243 29.0427C16.8778 29.0891 16.9421 29.1141 17.01 29.1141H20.2778C20.5421 29.1141 20.6635 28.7855 20.4636 28.6141L7.95998 17.757H28.8564C29.0135 17.757 29.1421 17.6284 29.1421 17.4713V15.3284C29.1421 15.1713 29.0135 15.0427 28.8564 15.0427Z" fill="black" fill-opacity="0.85"/>
</svg>
