<svg width="22" height="23" viewBox="0 0 22 23" fill="none" xmlns="http://www.w3.org/2000/svg">
<path d="M19.51 7.98595L14.0551 7.19317L11.6166 2.24962C11.55 2.11427 11.4405 2.0047 11.3051 1.93809C10.9657 1.77052 10.5532 1.91016 10.3834 2.24962L7.94495 7.19317L2.49006 7.98595C2.33967 8.00743 2.20217 8.07833 2.0969 8.18575C1.96963 8.31656 1.8995 8.49255 1.90192 8.67504C1.90433 8.85753 1.9791 9.0316 2.10979 9.15899L6.05647 13.0068L5.12405 18.4402C5.10218 18.5666 5.11617 18.6966 5.16442 18.8155C5.21267 18.9343 5.29326 19.0373 5.39705 19.1127C5.50083 19.188 5.62366 19.2328 5.75161 19.2419C5.87955 19.2511 6.00749 19.2242 6.12092 19.1643L11 16.599L15.8791 19.1643C16.0123 19.2352 16.167 19.2588 16.3153 19.233C16.6891 19.1686 16.9405 18.8141 16.876 18.4402L15.9436 13.0068L19.8903 9.15899C19.9977 9.05372 20.0686 8.91622 20.0901 8.76583C20.1481 8.38985 19.886 8.04181 19.51 7.98595Z" fill="#FACC15" fill-opacity="0.85"/>
</svg>
