<svg width="14" height="15" viewBox="0 0 14 15" fill="none" xmlns="http://www.w3.org/2000/svg">
<path d="M5.43759 4.02121C5.51729 3.72521 5.93726 3.72521 6.01696 4.02121L6.89731 7.29087C6.9251 7.39411 7.00575 7.47475 7.10899 7.50255L10.3786 8.3829C10.6747 8.4626 10.6747 8.88257 10.3786 8.96227L7.10899 9.84262C7.00575 9.87042 6.9251 9.95106 6.89731 10.0543L6.01696 13.324C5.93726 13.62 5.51729 13.62 5.43759 13.324L4.55724 10.0543C4.52944 9.95106 4.4488 9.87042 4.34555 9.84262L1.0759 8.96227C0.779893 8.88257 0.779893 8.4626 1.0759 8.3829L4.34555 7.50255C4.4488 7.47475 4.52944 7.39411 4.55724 7.29087L5.43759 4.02121Z" fill="white"/>
<path d="M10.8469 1.47629C10.9266 1.18028 11.3466 1.18028 11.4263 1.47629L11.6991 2.48978C11.7269 2.59302 11.8076 2.67367 11.9108 2.70146L12.9243 2.97434C13.2203 3.05404 13.2203 3.47401 12.9243 3.55371L11.9108 3.82659C11.8076 3.85439 11.7269 3.93503 11.6991 4.03828L11.4263 5.05177C11.3466 5.34777 10.9266 5.34777 10.8469 5.05177L10.574 4.03828C10.5462 3.93503 10.4656 3.85439 10.3623 3.82659L9.34885 3.55371C9.05284 3.47401 9.05284 3.05404 9.34885 2.97434L10.3623 2.70146C10.4656 2.67367 10.5462 2.59302 10.574 2.48978L10.8469 1.47629Z" fill="white"/>
</svg>
