<svg width="24" height="25" viewBox="0 0 24 25" fill="none" xmlns="http://www.w3.org/2000/svg">
<path d="M11.6881 8.5988C11.3194 8.64164 11.0383 8.94101 11.0122 9.31856C11.0009 9.48118 11.0044 9.49219 11.3732 10.4411C12.2121 12.5998 12.4153 13.1194 12.4495 13.1925C12.5323 13.3696 12.6487 13.5362 12.7943 13.6857C12.9059 13.8004 12.9795 13.8621 13.104 13.9453C13.3229 14.0915 13.4315 14.1319 14.2832 14.3841C15.1127 14.6297 15.566 14.793 15.9565 14.9868C16.4625 15.238 16.8155 15.5236 17.0388 15.8625C17.199 16.1057 17.3409 16.5418 17.4026 16.9808C17.4268 17.1524 17.4269 17.5317 17.4029 17.6869C17.3508 18.0236 17.2468 18.3058 17.0877 18.5419C17.003 18.6674 17.0325 18.6464 17.1555 18.4933C17.5038 18.0603 17.8586 17.3203 18.0396 16.6492C18.2587 15.8369 18.2885 14.9647 18.1254 14.1392C17.8077 12.5317 16.7928 11.1443 15.3636 10.3637C15.2738 10.3146 14.9317 10.1353 14.468 9.89424C14.3968 9.85723 14.3257 9.82013 14.2547 9.78292C14.2078 9.75827 14.1119 9.70815 14.0415 9.67161C13.9711 9.63503 13.7685 9.5295 13.5913 9.43705L13.1506 9.2073C13.0068 9.13236 12.8631 9.05731 12.7194 8.98214C12.2599 8.74159 12.0653 8.64433 12.0099 8.62748C11.9518 8.60976 11.804 8.58707 11.767 8.59012C11.7591 8.59074 11.7237 8.59467 11.6881 8.5988Z" fill="#0033FF"/>
<path d="M12.6892 16.6568C12.6637 16.6719 12.628 16.6937 12.6098 16.7053C12.5915 16.7169 12.551 16.7421 12.5197 16.7613C12.2921 16.9012 12.0647 17.0414 11.8374 17.1818C11.6982 17.2676 11.5592 17.3537 11.4204 17.44C11.359 17.4782 11.2974 17.5161 11.2356 17.5536C11.2121 17.5676 11.1119 17.6293 11.0128 17.6907C10.885 17.7699 10.7571 17.8489 10.629 17.9277C10.4804 18.0191 10.3319 18.1107 10.1836 18.2024C10.0542 18.2825 9.92469 18.3624 9.79507 18.4421C9.71425 18.4916 9.63963 18.5395 9.62919 18.5484C9.61369 18.5617 8.89512 19.0068 8.53457 19.2265C8.26069 19.3933 7.94391 19.5048 7.61964 19.5487C7.46869 19.5691 7.18297 19.5691 7.03243 19.5488C6.62419 19.4937 6.24819 19.3414 5.92609 19.101C5.79979 19.0066 5.56192 18.769 5.47102 18.6462C5.25672 18.357 5.11812 18.0467 5.04634 17.6956C5.02981 17.6148 5.0142 17.5466 5.01162 17.5439C5.0049 17.5372 5.01704 17.6592 5.0389 17.8188C5.06164 17.9847 5.11006 18.2248 5.16225 18.4301C5.56605 20.0188 6.71514 21.311 8.27061 21.9258C8.71854 22.1027 9.17056 22.2143 9.66236 22.2689C9.84716 22.2896 10.3703 22.2979 10.5631 22.2832C11.4476 22.2162 12.2178 21.9559 13.0078 21.4566C13.0782 21.4121 13.2104 21.3287 13.3016 21.2713C13.3871 21.2175 13.4724 21.1634 13.5575 21.109C13.607 21.0773 13.6667 21.0397 13.6902 21.0256C13.7252 21.0043 13.76 20.9824 13.7944 20.9601C13.8283 20.9382 13.9733 20.8464 14.1166 20.7563L14.6898 20.3943L14.8867 20.2699L14.8938 20.2655L14.9155 20.2518L14.9257 20.2453L15.0706 20.1537L15.5714 19.8374C16.2095 19.4365 16.3998 19.2957 16.6962 19.0053C16.8198 18.8843 17.0061 18.6777 17.0153 18.6515C17.0173 18.6461 17.0504 18.595 17.0889 18.5379C17.2458 18.3058 17.3504 18.0214 17.4023 17.6861C17.4263 17.531 17.4262 17.1516 17.402 16.98C17.3554 16.6483 17.2493 16.2719 17.135 16.0323C16.9476 15.6394 16.5483 15.2824 15.9747 14.9949C15.8163 14.9154 15.6528 14.8428 15.6345 14.8438C15.6259 14.8442 15.0921 15.1705 14.4484 15.5688C13.8046 15.9672 13.2459 16.3129 13.2068 16.3372C13.1572 16.3679 13.1075 16.3983 13.0576 16.4284L12.6892 16.6568Z" fill="#0033FF"/>
<path d="M5.00274 14.7458L5.00553 17.5203L5.04144 17.6814C5.15369 18.1851 5.34825 18.5483 5.68647 18.8856C5.84553 19.0442 5.96718 19.1399 6.13957 19.2419C6.50441 19.4578 6.897 19.5643 7.327 19.5641C7.77742 19.5639 8.16706 19.4515 8.56854 19.2061C8.63628 19.1647 8.9018 19.0013 9.15848 18.8429L9.62522 18.5549V11.9713L9.62512 8.95996C9.62501 7.03877 9.6215 5.8978 9.6154 5.8083C9.57716 5.2458 9.34188 4.72867 8.94629 4.33753C8.8249 4.21748 8.72119 4.13728 8.41216 3.92463C8.20362 3.7811 7.99512 3.63751 7.78667 3.49385C7.35075 3.19338 6.9148 2.89295 6.47883 2.59256C6.18019 2.38663 6.15683 2.37236 6.06656 2.34007C5.94915 2.29805 5.82471 2.2826 5.70642 2.29537C5.36163 2.33257 5.08563 2.58155 5.0139 2.91998C5.00274 2.97269 5.00067 3.67343 5.00052 7.47678L5.00036 11.9714H5L5.00274 14.7458Z" fill="#0033FF"/>
</svg>
