<svg width="14" height="15" viewBox="0 0 14 15" fill="none" xmlns="http://www.w3.org/2000/svg">
    <path
        d="M8.75016 2.15039H3.50016C3.016 2.15039 2.60183 2.44206 2.42683 2.86206L0.665163 6.97456C0.612663 7.10872 0.583496 7.24872 0.583496 7.40039V8.56706C0.583496 9.20872 1.1085 9.73372 1.75016 9.73372H5.431L4.87683 12.3996L4.85933 12.5862C4.85933 12.8254 4.9585 13.0471 5.116 13.2046L5.73433 13.8171L9.5785 9.97289C9.7885 9.76289 9.91683 9.47122 9.91683 9.15039V3.31706C9.91683 2.67539 9.39183 2.15039 8.75016 2.15039ZM8.75016 9.15039L6.2185 11.6821L7.00016 8.56706H1.75016V7.40039L3.50016 3.31706H8.75016V9.15039ZM11.0835 2.15039H13.4168V9.15039H11.0835V2.15039Z"
        fill="#323232" />
</svg>