<svg width="18" height="19" viewBox="0 0 18 19" fill="none" xmlns="http://www.w3.org/2000/svg">
<g clip-path="url(#clip0_1461_30227)">
<path fill-rule="evenodd" clip-rule="evenodd" d="M0 4.17027C0 2.72356 1.17278 1.55078 2.61949 1.55078H15.193C16.6397 1.55078 17.8125 2.72357 17.8125 4.17027V11.8541C17.8125 13.3008 16.6397 14.4736 15.193 14.4736H9.56135C9.51261 14.4736 9.46609 14.4939 9.43303 14.5298L5.69166 18.5829C5.28192 19.0268 4.54044 18.7369 4.54044 18.1328V14.6482C4.54044 14.5518 4.46226 14.4736 4.36581 14.4736H2.61948C1.17278 14.4736 0 13.3008 0 11.8541V4.17027ZM2.61949 2.59858C1.75146 2.59858 1.04779 3.30225 1.04779 4.17027V11.8541C1.04779 12.7221 1.75146 13.4258 2.61948 13.4258H4.36581C5.04094 13.4258 5.58823 13.9731 5.58823 14.6482V17.1502L8.66311 13.8191C8.89452 13.5684 9.22017 13.4258 9.56135 13.4258H15.193C16.061 13.4258 16.7647 12.7221 16.7647 11.8541V4.17027C16.7647 3.30225 16.061 2.59858 15.193 2.59858H2.61949Z" fill="black"/>
</g>
<defs>
<clipPath id="clip0_1461_30227">
<rect width="18" height="18" fill="white" transform="translate(0 0.800781)"/>
</clipPath>
</defs>
</svg>
