<svg width="16" height="17" viewBox="0 0 16 17" fill="none" xmlns="http://www.w3.org/2000/svg">
<g clip-path="url(#clip0_1461_30223)">
<path d="M15.3097 11.6782C15.6376 11.26 15.7949 10.8117 15.7748 10.3499C15.7547 9.84135 15.5272 9.44319 15.3398 9.19894C15.5573 8.65691 15.641 7.80371 14.9149 7.14122C14.3829 6.65607 13.4795 6.43859 12.2282 6.49882C11.3482 6.53897 10.6121 6.70291 10.582 6.70961H10.5786C10.4114 6.73972 10.234 6.77652 10.0533 6.81667C10.04 6.60254 10.0768 6.07054 10.4716 4.87272C10.94 3.44737 10.9132 2.35662 10.3846 1.62721C9.82917 0.861007 8.94251 0.800781 8.68153 0.800781C8.43059 0.800781 8.19972 0.904504 8.03578 1.09522C7.66438 1.52684 7.70788 2.32316 7.75472 2.6912C7.31307 3.87565 6.07509 6.77987 5.02783 7.58623C5.00775 7.59961 4.99102 7.61634 4.9743 7.63307C4.66647 7.95762 4.45903 8.30894 4.3185 8.61676C4.1211 8.50969 3.89692 8.44946 3.65602 8.44946H1.61503C0.845479 8.44946 0.223145 9.07514 0.223145 9.84135V15.2784C0.223145 16.048 0.848824 16.6703 1.61503 16.6703H3.65602C3.9538 16.6703 4.23151 16.5766 4.45903 16.416L5.24531 16.5097C5.36576 16.5264 7.50713 16.7974 9.70537 16.7539C10.1035 16.7841 10.4783 16.8008 10.8262 16.8008C11.4252 16.8008 11.9471 16.7539 12.3821 16.6603C13.4059 16.4428 14.1052 16.0078 14.4599 15.3687C14.7309 14.8802 14.7309 14.3951 14.6874 14.0873C15.3532 13.485 15.4703 12.8192 15.4469 12.3508C15.4335 12.0797 15.3733 11.8489 15.3097 11.6782ZM1.61503 15.7669C1.34401 15.7669 1.12653 15.5461 1.12653 15.2784V9.83801C1.12653 9.56699 1.34736 9.34951 1.61503 9.34951H3.65602C3.92703 9.34951 4.14452 9.57033 4.14452 9.83801V15.2751C4.14452 15.5461 3.92369 15.7636 3.65602 15.7636H1.61503V15.7669ZM14.4532 11.2868C14.3126 11.434 14.2859 11.6582 14.393 11.8321C14.393 11.8355 14.5301 12.0697 14.5469 12.3909C14.5703 12.8292 14.3595 13.2173 13.9178 13.5486C13.7606 13.669 13.697 13.8765 13.7639 14.0639C13.7639 14.0672 13.9078 14.5089 13.6736 14.9271C13.4494 15.3286 12.9509 15.6163 12.1947 15.7769C11.5891 15.9074 10.766 15.9309 9.75556 15.8506C9.74218 15.8506 9.72545 15.8506 9.70872 15.8506C7.55732 15.8974 5.38249 15.6163 5.35907 15.613H5.35573L5.01779 15.5728C5.03787 15.4792 5.0479 15.3788 5.0479 15.2784V9.83801C5.0479 9.69413 5.02448 9.55361 4.98433 9.42312C5.04456 9.19894 5.21185 8.7004 5.60667 8.27548C7.10897 7.08434 8.57781 3.06594 8.64138 2.89196C8.66815 2.82169 8.67484 2.74474 8.66146 2.66778C8.60458 2.29304 8.62465 1.83466 8.70495 1.69748C8.88228 1.70082 9.36075 1.75101 9.64849 2.14917C9.98977 2.62094 9.97639 3.4641 9.60834 4.58163C9.04623 6.28468 8.99939 7.18138 9.44439 7.57619C9.66522 7.7736 9.95966 7.78363 10.1738 7.70668C10.3779 7.65984 10.572 7.61969 10.756 7.58957C10.7694 7.58623 10.7861 7.58288 10.7995 7.57954C11.8267 7.35536 13.6669 7.21818 14.306 7.80036C14.848 8.29555 14.4632 8.95135 14.4197 9.02161C14.2959 9.20898 14.3327 9.45323 14.5 9.60379C14.5034 9.60714 14.8547 9.93838 14.8714 10.3834C14.8848 10.6812 14.7443 10.9856 14.4532 11.2868Z" fill="black"/>
</g>
<defs>
<clipPath id="clip0_1461_30223">
<rect width="16" height="16" fill="white" transform="translate(0 0.800781)"/>
</clipPath>
</defs>
</svg>
