<svg width="18" height="19" viewBox="0 0 18 19" fill="none" xmlns="http://www.w3.org/2000/svg">
<g clip-path="url(#clip0_1461_30231)">
<path d="M17.3793 10.4698C17.7275 10.088 17.7275 9.50391 17.3793 9.12215L11.5295 2.70755C10.9141 2.03275 9.7906 2.46811 9.7906 3.38138V6.18903H8.83768C6.47713 6.18903 4.25775 7.10831 2.58852 8.77754C0.919281 10.4468 0 12.6662 0 15.0268V17.5112C0 17.9678 0.561552 18.1855 0.869312 17.8483L1.57434 17.0758C3.68028 14.7685 6.66966 13.4338 9.7906 13.4035V16.2107C9.7906 17.1239 10.9141 17.5593 11.5295 16.8845L17.3793 10.4698ZM1.05482 16.0891V15.0268C1.05482 12.948 1.86438 10.9933 3.33435 9.52338C4.80432 8.05341 6.75879 7.24385 8.83768 7.24385H10.8453V3.52278L16.5664 9.79597L10.8453 16.0693V12.3482H9.89896C6.56955 12.3482 3.36786 13.7071 1.05482 16.0891Z" fill="black"/>
</g>
<defs>
<clipPath id="clip0_1461_30231">
<rect width="18" height="18" fill="white" transform="translate(0 0.800781)"/>
</clipPath>
</defs>
</svg>
