<svg width="14" height="15" viewBox="0 0 14 15" fill="none" xmlns="http://www.w3.org/2000/svg">
<path d="M5.25016 12.651H10.5002C10.9843 12.651 11.3985 12.3594 11.5735 11.9394L13.3352 7.82688C13.3877 7.69271 13.4168 7.55271 13.4168 7.40104V6.23438C13.4168 5.59271 12.8918 5.06771 12.2502 5.06771H8.56933L9.1235 2.40188L9.141 2.21521C9.141 1.97604 9.04183 1.75438 8.88433 1.59688L8.266 0.984375L4.42183 4.82854C4.21183 5.03854 4.0835 5.33021 4.0835 5.65104V11.4844C4.0835 12.126 4.6085 12.651 5.25016 12.651ZM5.25016 5.65104L7.78183 3.11937L7.00016 6.23438H12.2502V7.40104L10.5002 11.4844H5.25016V5.65104ZM0.583496 5.65104H2.91683V12.651H0.583496V5.65104Z" fill="#323232"/>
</svg>
