<svg width="20" height="27" viewBox="0 0 20 27" fill="none" xmlns="http://www.w3.org/2000/svg">
<path fill-rule="evenodd" clip-rule="evenodd" d="M12.0753 0.400391L15.1133 5.09547L12.0667 9.59616H10.251L10.8245 8.75531L12.8006 5.83613H3.25293C2.56257 5.83613 2.00293 6.39578 2.00293 7.08613V17.7951H0.50293V7.08613C0.50293 5.56735 1.73415 4.33613 3.25293 4.33613H12.8353L10.816 1.21527L10.251 0.400391H12.0753Z" fill="#6A6A6A"/>
<path fill-rule="evenodd" clip-rule="evenodd" d="M7.83338 26.4922L4.79538 21.7971L7.84198 17.2964L9.65771 17.2964L9.08414 18.1373L7.1081 21.0564L16.6558 21.0564C17.3461 21.0564 17.9058 20.4968 17.9058 19.8064L17.9058 9.09746L19.4058 9.09746L19.4058 19.8064C19.4058 21.3252 18.1745 22.5564 16.6558 22.5564L7.07335 22.5564L9.09274 25.6773L9.65771 26.4922L7.83338 26.4922Z" fill="#6A6A6A"/>
</svg>
