<svg width="21" height="24" viewBox="0 0 21 24" fill="none" xmlns="http://www.w3.org/2000/svg">
<path d="M19.1648 11.898L14.8731 7.60636C14.0295 6.7616 13.3944 5.73189 13.0181 4.5989L12.4803 2.98541C12.2784 2.38518 11.8934 1.86332 11.3796 1.49319C10.8657 1.12305 10.2488 0.923261 9.61551 0.921895C9.21913 0.920451 8.82634 0.997096 8.45957 1.14745C8.0928 1.29781 7.75924 1.51894 7.47793 1.79821C7.19663 2.07748 6.97308 2.40942 6.82006 2.77508C6.66704 3.14075 6.58754 3.53297 6.5861 3.92936V5.15869C6.58855 6.22151 6.75895 7.27726 7.091 8.28689L7.56298 9.70281H2.32736C1.71021 9.70281 1.11835 9.94797 0.681961 10.3844C0.245575 10.8207 0.000415501 11.4126 0.000415501 12.0297C0.00193047 12.409 0.0944271 12.7824 0.270139 13.1186C0.44585 13.4547 0.699648 13.7438 1.01022 13.9615C0.699362 14.1739 0.44494 14.4587 0.268985 14.7915C0.0930301 15.1243 0.000846008 15.495 0.000415501 15.8714C-0.00830659 16.3351 0.120462 16.7911 0.370488 17.1817C0.620514 17.5724 0.980604 17.8803 1.40536 18.0666C1.20806 18.3991 1.10204 18.7777 1.09803 19.1642C1.09708 19.7592 1.32407 20.332 1.73237 20.7648C2.14066 21.1976 2.69922 21.4575 3.29326 21.4912V21.6448C3.29326 22.262 3.53842 22.8539 3.9748 23.2902C4.41119 23.7266 5.00306 23.9718 5.6202 23.9718H13.8413C15.2046 23.9706 16.5492 23.6551 17.7708 23.0498L18.111 22.8742H20.8551V11.898H19.1648ZM18.6599 20.6789H17.5622L16.761 21.0851C15.8421 21.5369 14.8323 21.7734 13.8084 21.7766H6.27877C6.03384 21.7863 5.7927 21.7138 5.59377 21.5706C5.39485 21.4273 5.24959 21.2217 5.18115 20.9863L4.90675 20.0314L3.97378 19.5813C3.75889 19.4938 3.57727 19.3404 3.45501 19.1432C3.33274 18.946 3.27611 18.7151 3.29326 18.4837L3.47985 17.3861L2.64566 16.5739C2.46417 16.3966 2.34969 16.162 2.32167 15.9098C2.29366 15.6577 2.35384 15.4036 2.492 15.1909L3.21642 13.9945L2.41517 12.7871C2.36932 12.7314 2.33516 12.667 2.31471 12.5978C2.29426 12.5286 2.28794 12.456 2.29613 12.3843C2.30433 12.3126 2.32686 12.2433 2.3624 12.1805C2.39793 12.1177 2.44574 12.0627 2.50298 12.0188C2.6072 11.932 2.74086 11.8887 2.87616 11.898H10.6143L9.17647 7.59539C8.91428 6.80976 8.78085 5.98691 8.78133 5.15869V3.94033C8.78688 3.72376 8.8754 3.51758 9.02859 3.36439C9.18179 3.21119 9.38796 3.12268 9.60454 3.11712C9.77665 3.11725 9.94439 3.17132 10.0842 3.27173C10.224 3.37214 10.3288 3.51384 10.3838 3.67691L10.9766 5.31235C11.4501 6.75562 12.2502 8.07023 13.3145 9.154L18.2537 14.0933H18.6599V20.6789Z" fill="#6A6A6A"/>
</svg>
