<svg width="24" height="25" viewBox="0 0 24 25" fill="none" xmlns="http://www.w3.org/2000/svg">
<path d="M17.3125 2.40039H6.6875C4.09867 2.40039 2 4.49906 2 7.08789V17.7129C2 20.3017 4.09867 22.4004 6.6875 22.4004H17.3125C19.9013 22.4004 22 20.3017 22 17.7129V7.08789C22 4.49906 19.9013 2.40039 17.3125 2.40039Z" fill="#0033FF"/>
<path d="M16.4112 19.4004H18.6877C18.7702 19.4004 18.8493 19.3676 18.9077 19.3091C18.966 19.2507 18.9988 19.1715 18.9988 19.0888L19 14.2704C19 11.752 18.4583 9.81625 15.5204 9.81625C14.4036 9.77465 13.3504 10.3514 12.7821 11.3144C12.7793 11.3191 12.775 11.3227 12.77 11.3247C12.765 11.3268 12.7594 11.3271 12.7542 11.3257C12.7489 11.3243 12.7443 11.3212 12.741 11.3169C12.7376 11.3126 12.7358 11.3073 12.7358 11.3018V10.3604C12.7358 10.2777 12.703 10.1985 12.6447 10.14C12.5863 10.0816 12.5072 10.0487 12.4247 10.0487H10.2642C10.1817 10.0487 10.1026 10.0816 10.0442 10.14C9.9859 10.1985 9.95312 10.2777 9.95312 10.3604V19.0883C9.95312 19.171 9.9859 19.2503 10.0442 19.3087C10.1026 19.3672 10.1817 19.4 10.2642 19.4H12.5406C12.6231 19.4 12.7023 19.3672 12.7606 19.3087C12.819 19.2503 12.8517 19.171 12.8517 19.0883V14.774C12.8517 13.5541 13.0827 12.3727 14.5925 12.3727C16.0808 12.3727 16.1001 13.7686 16.1001 14.853V19.0887C16.1001 19.1714 16.1328 19.2507 16.1912 19.3091C16.2495 19.3676 16.3287 19.4004 16.4112 19.4004ZM5 7.08552C5 8.00989 5.75966 8.77049 6.68249 8.77049C7.60509 8.77041 8.36428 8.00935 8.36428 7.08513C8.36412 6.16091 7.60486 5.40039 6.68218 5.40039C5.75927 5.40039 5 6.16114 5 7.08552ZM5.54126 19.4004H7.82069C7.9032 19.4004 7.98233 19.3676 8.04068 19.3091C8.09902 19.2507 8.1318 19.1714 8.1318 19.0887V10.3604C8.1318 10.2777 8.09902 10.1985 8.04068 10.14C7.98233 10.0816 7.9032 10.0487 7.82069 10.0487H5.54126C5.45874 10.0487 5.37961 10.0816 5.32127 10.14C5.26292 10.1985 5.23014 10.2777 5.23014 10.3604V19.0887C5.23014 19.1714 5.26292 19.2507 5.32127 19.3091C5.37961 19.3676 5.45874 19.4004 5.54126 19.4004Z" fill="white"/>
</svg>
