<svg width="27" height="23" viewBox="0 0 27 23" fill="none" xmlns="http://www.w3.org/2000/svg">
<path d="M7.77522 6.72389H19.5824V7.90461H7.77522V6.72389ZM7.77522 11.4468H16.0402V10.266H7.77522V11.4468ZM26.6667 9.08533C26.6842 10.3781 26.3883 11.6559 25.8044 12.8095C25.2204 13.963 24.3657 14.9579 23.3134 15.7091L13.6788 22.0732V17.3503H8.95593C6.76391 17.3503 4.66167 16.4796 3.11168 14.9296C1.56169 13.3796 0.690918 11.2773 0.690918 9.08533C0.690918 6.89331 1.56169 4.79107 3.11168 3.24108C4.66167 1.69109 6.76391 0.820313 8.95593 0.820312H18.4017C20.5937 0.820313 22.6959 1.69109 24.2459 3.24108C25.7959 4.79107 26.6667 6.89331 26.6667 9.08533ZM24.3052 9.08533C24.3052 7.5196 23.6833 6.018 22.5761 4.91086C21.469 3.80373 19.9674 3.18174 18.4017 3.18174H8.95593C7.3902 3.18174 5.88861 3.80373 4.78147 4.91086C3.67433 6.018 3.05235 7.5196 3.05235 9.08533C3.05235 10.6511 3.67433 12.1527 4.78147 13.2598C5.88861 14.3669 7.3902 14.9889 8.95593 14.9889H16.0402V17.6809L21.9438 13.8082C22.6919 13.2725 23.298 12.5623 23.7095 11.7393C24.121 10.9162 24.3255 10.0053 24.3052 9.08533Z" fill="#6A6A6A"/>
</svg>
