<svg width="14" height="15" viewBox="0 0 14 15" fill="none" xmlns="http://www.w3.org/2000/svg">
<path d="M10.5 9.77974C10.0567 9.77974 9.66 9.95474 9.35667 10.2289L5.1975 7.80807C5.22667 7.67391 5.25 7.53974 5.25 7.39974C5.25 7.25974 5.22667 7.12557 5.1975 6.99141L9.31 4.59391C9.625 4.88557 10.0392 5.06641 10.5 5.06641C11.4683 5.06641 12.25 4.28474 12.25 3.31641C12.25 2.34807 11.4683 1.56641 10.5 1.56641C9.53167 1.56641 8.75 2.34807 8.75 3.31641C8.75 3.45641 8.77333 3.59057 8.8025 3.72474L4.69 6.12224C4.375 5.83057 3.96083 5.64974 3.5 5.64974C2.53167 5.64974 1.75 6.43141 1.75 7.39974C1.75 8.36807 2.53167 9.14974 3.5 9.14974C3.96083 9.14974 4.375 8.96891 4.69 8.67724L8.84333 11.1039C8.81417 11.2264 8.79667 11.3547 8.79667 11.4831C8.79667 12.4222 9.56083 13.1864 10.5 13.1864C11.4392 13.1864 12.2033 12.4222 12.2033 11.4831C12.2033 10.5439 11.4392 9.77974 10.5 9.77974ZM10.5 2.73307C10.8208 2.73307 11.0833 2.99557 11.0833 3.31641C11.0833 3.63724 10.8208 3.89974 10.5 3.89974C10.1792 3.89974 9.91667 3.63724 9.91667 3.31641C9.91667 2.99557 10.1792 2.73307 10.5 2.73307ZM3.5 7.98307C3.17917 7.98307 2.91667 7.72057 2.91667 7.39974C2.91667 7.07891 3.17917 6.81641 3.5 6.81641C3.82083 6.81641 4.08333 7.07891 4.08333 7.39974C4.08333 7.72057 3.82083 7.98307 3.5 7.98307ZM10.5 12.0781C10.1792 12.0781 9.91667 11.8156 9.91667 11.4947C9.91667 11.1739 10.1792 10.9114 10.5 10.9114C10.8208 10.9114 11.0833 11.1739 11.0833 11.4947C11.0833 11.8156 10.8208 12.0781 10.5 12.0781Z" fill="#323232"/>
</svg>
