<svg width="19" height="19" viewBox="0 0 19 19" fill="none" xmlns="http://www.w3.org/2000/svg">
<g clip-path="url(#clip0_414_163215)">
<path d="M4.04129 3.50977L7.36529 6.61477L6.34229 7.70977L4.79129 6.26227V12.5998C4.79129 13.4248 5.46329 14.0998 6.29129 14.0998H10.4163V15.5998H6.29129C4.63454 15.5998 3.29129 14.2573 3.29129 12.5998V6.26227L1.74029 7.70977L0.717285 6.61477L4.04129 3.50977ZM13.0413 5.09977H8.91629V3.59977H13.0413C14.698 3.59977 16.0413 4.94227 16.0413 6.59977V12.9373L17.5923 11.4898L18.6153 12.5848L15.2913 15.6898L11.9673 12.5848L12.9903 11.4898L14.5413 12.9373V6.59977C14.5413 5.77477 13.8693 5.09977 13.0413 5.09977Z" fill="#536471"/>
</g>
<defs>
<clipPath id="clip0_414_163215">
<rect width="18" height="18" fill="white" transform="translate(0.666504 0.599609)"/>
</clipPath>
</defs>
</svg>
