<svg width="18" height="19" viewBox="0 0 18 19" fill="none" xmlns="http://www.w3.org/2000/svg">
<path d="M1.31348 8.09961C1.31348 4.78461 4.00148 2.09961 7.31723 2.09961H10.5917C13.9592 2.09961 16.6885 4.82961 16.6885 8.19711C16.6885 10.4171 15.4832 12.4571 13.5415 13.5296L7.50098 16.8746V14.1071H7.45073C4.08323 14.1821 1.31348 11.4746 1.31348 8.09961ZM7.31723 3.59961C4.82948 3.59961 2.81348 5.61711 2.81348 8.09961C2.81348 10.6271 4.89098 12.6596 7.41698 12.6071L7.68023 12.5996H9.00098V14.3246L12.8162 12.2171C14.2795 11.4071 15.1885 9.86961 15.1885 8.19711C15.1885 5.65461 13.1305 3.59961 10.5917 3.59961H7.31723Z" fill="#536471"/>
</svg>
