<svg width="19" height="19" viewBox="0 0 19 19" fill="none" xmlns="http://www.w3.org/2000/svg">
<path d="M12.8565 4.72521C11.94 4.68021 10.8472 5.10771 9.93898 6.34521L9.33523 7.16271L8.73073 6.34521C7.82173 5.10771 6.72823 4.68021 5.81173 4.72521C4.87948 4.77771 4.04998 5.31021 3.62923 6.15771C3.21523 6.99771 3.15448 8.24271 3.98848 9.77271C4.79398 11.2502 6.43123 12.9752 9.33523 14.7302C12.2377 12.9752 13.8742 11.2502 14.6797 9.77271C15.513 8.24271 15.4522 6.99771 15.0375 6.15771C14.6167 5.31021 13.788 4.77771 12.8565 4.72521ZM15.9967 10.4927C14.9835 12.3527 12.996 14.3327 9.71248 16.2452L9.33523 16.4702L8.95723 16.2452C5.67298 14.3327 3.68548 12.3527 2.67073 10.4927C1.65073 8.61771 1.61323 6.84771 2.28523 5.49021C2.95048 4.14771 4.27048 3.30771 5.73598 3.23271C6.97423 3.16521 8.26198 3.65271 9.33448 4.74021C10.4062 3.65271 11.694 3.16521 12.9315 3.23271C14.397 3.30771 15.717 4.14771 16.3822 5.49021C17.0542 6.84771 17.0167 8.61771 15.9967 10.4927Z" fill="#536471"/>
</svg>
