<svg width="4" height="12" viewBox="0 0 4 12" fill="none" xmlns="http://www.w3.org/2000/svg">
<path d="M1.99984 3.33268C2.73317 3.33268 3.33317 2.73268 3.33317 1.99935C3.33317 1.26602 2.73317 0.666016 1.99984 0.666016C1.2665 0.666016 0.666504 1.26602 0.666504 1.99935C0.666504 2.73268 1.2665 3.33268 1.99984 3.33268ZM1.99984 4.66602C1.2665 4.66602 0.666504 5.26602 0.666504 5.99935C0.666504 6.73268 1.2665 7.33268 1.99984 7.33268C2.73317 7.33268 3.33317 6.73268 3.33317 5.99935C3.33317 5.26602 2.73317 4.66602 1.99984 4.66602ZM1.99984 8.66602C1.2665 8.66602 0.666504 9.26602 0.666504 9.99935C0.666504 10.7327 1.2665 11.3327 1.99984 11.3327C2.73317 11.3327 3.33317 10.7327 3.33317 9.99935C3.33317 9.26602 2.73317 8.66602 1.99984 8.66602Z" fill="#323232"/>
</svg>
